<?xml version="1.0" encoding="UTF-8"?>
<svg xmlns="http://www.w3.org/2000/svg" width="1140" height="611.88" xmlns:xlink="http://www.w3.org/1999/xlink" viewBox="0 0 1140 611.88">
  <defs>
    <style>
      .cls-1 {
        opacity: .1;
      }

      .cls-1, .cls-2, .cls-3 {
        fill: #d7e0f1;
      }

      .cls-4 {
        fill: url(#linear-gradient);
      }

      .cls-5 {
        fill: #fff;
      }

      .cls-6 {
        fill: #a3ea2a;
      }

      .cls-7 {
        fill: #223654;
      }

      .cls-8 {
        fill: #072249;
      }

      .cls-9 {
        fill: #151c2b;
      }

      .cls-10 {
        fill: #1c2538;
      }

      .cls-11 {
        fill: #0c2f6b;
      }

      .cls-12 {
        fill: #02adef;
        opacity: .15;
      }

      .cls-2 {
        opacity: .34;
      }

      .cls-13 {
        fill: url(#linear-gradient-2);
      }

      .cls-14 {
        isolation: isolate;
      }

      .cls-15 {
        fill: #cdf7f9;
        mix-blend-mode: overlay;
        opacity: .6;
      }

      .cls-16 {
        fill: #2a59be;
        opacity: .52;
      }

      .cls-17 {
        opacity: .46;
      }

      .cls-17, .cls-18 {
        fill: #fffdfe;
      }

      .cls-18 {
        opacity: .47;
      }

      .cls-3 {
        opacity: .42;
      }
    </style>
    <linearGradient id="linear-gradient" x1="868.84" y1="402.82" x2="994.9" y2="435.91" gradientTransform="translate(-279.89 -122.49) rotate(8.06)" gradientUnits="userSpaceOnUse">
      <stop offset="0" stop-color="#02adef"/>
      <stop offset="1" stop-color="#2a59be"/>
    </linearGradient>
    <linearGradient id="linear-gradient-2" x1="367.7" y1="173.46" x2="688.73" y2="173.46" gradientTransform="translate(149.37 -189.6) rotate(23.96)" xlink:href="#linear-gradient"/>
  </defs>
  <g class="cls-14">
    <g id="Layer_1" data-name="Layer 1">
      <g>
        <path class="cls-10" d="m702.77,177.55c-8.52,77.74-78.44,133.85-156.18,125.33-77.74-8.52-133.85-78.44-125.33-156.18.91-8.28,2.52-16.33,4.76-24.08,8.48-4.19,17.23-7.85,26.16-11.06,59.54-21.35,127.96-22.08,190.47-14.15,7.31.93,14.54,2.24,21.66,3.9,10.03,2.31,19.85,5.28,29.41,8.77,8.23,20.75,11.65,43.75,9.05,67.47Z"/>
        <path class="cls-7" d="m679.75,182.16s0,.03,0,.04c0,0-.05.26-.12.75l-.02.2c-10.55,62.34-68.06,106.37-131.72,99.39-49.68-5.44-88.95-40.4-102.3-85.48-4.4-14.86-5.99-30.84-4.19-47.21,1.5-13.65,5.21-26.52,10.79-38.27,59.54-21.35,127.96-22.08,190.47-14.15,7.31.93,14.54,2.24,21.66,3.9,12.98,21.7,19.25,47.65,16.28,74.74-.22,2.05-.51,4.08-.84,6.11Z"/>
        <path class="cls-16" d="m679.75,182.2s-.05.26-.12.75l-.02.2c-10.55,62.34-68.06,106.37-131.72,99.39-49.68-5.44-88.95-40.4-102.3-85.48,0,0,9.97-38.31,46.76-18.39,36.81,19.9,13.99,50.91,84.87,36.34,70.9-14.58,40.22-48.57,71.79-43.75,31.25,4.75,30.75,10.82,30.73,10.95Z"/>
        <path class="cls-9" d="m439.25,169.45s93.19-48.73,242.26,6.7c0,0,6.55-59.8-16.37-74.75,0,0-113.06-22.07-212.93,10.17,0,0-11.25,16.81-12.96,57.88Z"/>
        <circle class="cls-9" cx="556.92" cy="174.61" r="37.94"/>
        <path class="cls-12" d="m453.72,163.3s36.05-64.01,120.28-51.06c84.23,12.95,89.76,74.08,89.76,74.08,0,0-38.17-18.15-85.38-12.15-47.21,6-124.67-10.87-124.67-10.87Z"/>
        <path class="cls-18" d="m464.44,202.64s98.64,69,180.16,8.8c0,0-18.92,63.28-89.78,58.82-73.91-4.65-90.38-67.63-90.38-67.63Z"/>
        <circle class="cls-17" cx="529.27" cy="138.06" r="15.73"/>
        <circle class="cls-17" cx="558.71" cy="141.29" r="5.55"/>
      </g>
      <g id="Magnifying_Glass" data-name="Magnifying Glass">
        <g id="Artwork_28" data-name="Artwork 28">
          <g>
            <path class="cls-8" d="m711.68,574.67l-22.25,7.82c-15.92,5.6-33.14-3.05-38.48-19.34l-51.67-157.56c-5.28-16.15-.13-33.4,11.75-43.99l-12.11-36.97,24.25-8.53,11.63,35.51c2.65-.17,5.27-.07,7.85.3,14.37,2.03,27.08,12.11,32,27.16l53.18,162.17c4.51,13.73-2.73,28.7-16.15,33.43Z"/>
            <path class="cls-4" d="m720.76,579.43l-23.11,7.85c-16.53,5.62-34.48-3.22-40.1-19.75l-54.34-159.93c-5.56-16.39-.26-33.86,12.05-44.55l-12.74-37.53,25.2-8.56,12.23,36.04c2.76-.16,5.48-.05,8.17.33,14.95,2.12,28.21,12.38,33.39,27.65l55.93,164.6c4.74,13.94-2.73,29.09-16.67,33.83Z"/>
            <path class="cls-13" d="m632.49,39.38c-14.84-7.31-31.08-12.41-48.35-14.86-87.76-12.43-168.96,48.63-181.39,136.38-10.58,74.68,32.07,144.61,99.1,171.45,11.73,4.7,24.22,8.08,37.29,9.93,87.76,12.43,168.96-48.63,181.39-136.38,9.98-70.49-27.44-136.74-88.04-166.53Zm8.52,47.85c29.02,27.02,44.8,67.33,38.82,109.56-9.72,68.66-73.26,116.43-141.91,106.71-22.52-3.19-42.8-12.17-59.54-25.23-.05,0-.08-.04-.11-.08-29.02-27.02-44.8-67.33-38.82-109.56,9.72-68.66,73.26-116.43,141.91-106.71,22.52,3.19,42.8,12.17,59.54,25.23.03.04.08.06.11.08Z"/>
            <path class="cls-11" d="m439.45,168.62c-5.98,42.23,9.79,82.54,38.82,109.56-34.2-26.74-53.58-70.52-47.06-116.6,9.72-68.66,73.26-116.43,141.91-106.71,26.38,3.74,49.65,15.41,67.78,32.27-16.74-13.05-37.02-22.04-59.54-25.23-68.66-9.72-132.19,38.05-141.91,106.71Z"/>
            <path class="cls-15" d="m668.25,192.85c-9.72,68.66-73.26,116.43-141.91,106.71-22.52-3.19-42.8-12.17-59.54-25.23-.05,0-.08-.04-.11-.08-29.02-27.02-44.8-67.33-38.82-109.56,9.72-68.66,73.26-116.43,141.91-106.71,22.52,3.19,42.8,12.17,59.54,25.23.03.04.08.06.11.08,29.02,27.02,44.8,67.33,38.82,109.56Z"/>
            <path class="cls-1" d="m687.44,204.82c-9.72,68.66-73.9,116.11-142.56,106.38-22.52-3.19-49.53-21.53-66.27-34.58-.05,0-.08-.04-.11-.08-18.98-17.67-32.3-41.02-37.55-66.89,2.77,3.18,5.71,6.2,8.79,9.07.03.04.06.08.11.08,16.74,13.05,37.02,22.04,59.54,25.23,68.66,9.72,132.19-38.05,141.91-106.71,2.07-14.6,1.54-28.99-1.26-42.67,23.35,26.53,42.75,72.43,37.4,110.16Z"/>
            <path class="cls-7" d="m688.07,203.83c-9.72,68.66-73.26,116.43-141.91,106.71-26.38-3.74-49.65-15.41-67.78-32.27,16.74,13.05,37.02,22.04,59.54,25.23,68.66,9.72,132.19-38.05,141.91-106.71,5.98-42.23-9.79-82.54-38.82-109.56,34.2,26.74,53.58,70.52,47.06,116.6Z"/>
            <ellipse class="cls-3" cx="481.46" cy="138.74" rx="34.2" ry="17.9" transform="translate(118.41 484.05) rotate(-59.64)"/>
            <rect class="cls-2" x="629.87" y="389.96" width="9.47" height="119.89" rx="3.15" ry="3.15" transform="translate(-112.26 232.35) rotate(-19.09)"/>
            <rect class="cls-2" x="635.38" y="383.22" width="9.47" height="46.93" rx="3.15" ry="3.15" transform="translate(-97.82 231.77) rotate(-19.09)"/>
          </g>
        </g>
      </g>
      <rect class="cls-7" x="10.93" y="52.52" width="349.44" height="88.13" rx="10.77" ry="10.77"/>
      <g>
        <path class="cls-6" d="m81.66,87.82c2.91,0,5.14.52,6.69,1.55,1.55,1.04,2.32,2.65,2.32,4.83,0,1.36-.31,2.47-.94,3.32-.63.85-1.53,1.52-2.7,2,.39.49.8,1.04,1.23,1.67.43.63.85,1.28,1.27,1.96.42.68.83,1.39,1.22,2.13s.76,1.46,1.09,2.17h-4.88c-.36-.63-.72-1.28-1.08-1.93-.37-.65-.74-1.29-1.12-1.9-.38-.62-.76-1.2-1.14-1.75-.37-.55-.75-1.05-1.12-1.5h-2.16v7.08h-4.37v-19.12c.95-.19,1.94-.32,2.95-.39,1.02-.07,1.93-.11,2.73-.11Zm.25,3.72c-.32,0-.6,0-.85.03-.25.02-.49.04-.71.06v5.26h1.23c1.64,0,2.82-.21,3.53-.62.71-.41,1.06-1.11,1.06-2.1s-.36-1.63-1.08-2.03c-.72-.4-1.78-.6-3.18-.6Z"/>
        <path class="cls-6" d="m98.94,88.47c0,.77-.25,1.37-.74,1.81-.5.44-1.08.66-1.75.66s-1.26-.22-1.75-.66c-.5-.44-.74-1.04-.74-1.81s.25-1.37.74-1.81c.49-.44,1.08-.66,1.75-.66s1.25.22,1.75.66c.49.44.74,1.04.74,1.81Zm-.39,18.98h-4.17v-14.73h4.17v14.73Z"/>
        <path class="cls-6" d="m106.69,104.46c.77,0,1.31-.07,1.62-.22.32-.15.48-.44.48-.87,0-.34-.21-.63-.62-.88-.41-.25-1.04-.54-1.88-.85-.65-.24-1.25-.49-1.78-.76-.53-.26-.98-.57-1.36-.94-.37-.36-.66-.8-.87-1.3-.21-.5-.31-1.11-.31-1.82,0-1.38.51-2.47,1.54-3.28,1.03-.8,2.44-1.2,4.23-1.2.9,0,1.75.08,2.58.24.82.16,1.47.33,1.96.52l-.73,3.25c-.49-.17-1.01-.32-1.58-.45-.57-.13-1.21-.2-1.92-.2-1.31,0-1.96.36-1.96,1.09,0,.17.03.32.08.45.06.13.17.26.34.38s.4.25.69.39c.29.14.66.3,1.11.47.91.34,1.67.67,2.27,1,.6.33,1.07.69,1.41,1.07.35.38.59.81.73,1.27.14.47.21,1.01.21,1.62,0,1.45-.55,2.55-1.64,3.3-1.09.74-2.64,1.12-4.63,1.12-1.31,0-2.39-.11-3.26-.34-.87-.22-1.47-.41-1.81-.56l.7-3.39c.71.28,1.44.5,2.18.66.75.16,1.48.24,2.21.24Z"/>
        <path class="cls-6" d="m120.22,98.01c.41-.45.83-.91,1.27-1.39.44-.48.86-.96,1.27-1.43.41-.47.8-.92,1.16-1.35.36-.43.68-.8.94-1.11h4.96c-.99,1.14-1.96,2.22-2.9,3.25-.94,1.03-1.97,2.1-3.09,3.2.56.5,1.14,1.11,1.74,1.81.6.7,1.18,1.43,1.74,2.17s1.07,1.5,1.54,2.24c.47.75.86,1.43,1.18,2.05h-4.8c-.3-.49-.64-1.02-1.02-1.61-.38-.59-.79-1.18-1.22-1.77s-.88-1.16-1.36-1.7-.95-1-1.41-1.38v6.46h-4.17v-21.06l4.17-.67v12.29Z"/>
        <path class="cls-6" d="m152.27,107.45c-.22-.67-.45-1.37-.7-2.08-.25-.71-.5-1.42-.74-2.12h-7.58c-.25.71-.49,1.42-.74,2.13-.25.71-.48,1.4-.69,2.07h-4.54c.73-2.09,1.42-4.02,2.08-5.8.66-1.77,1.3-3.44,1.92-5.01s1.25-3.06,1.85-4.47c.61-1.41,1.24-2.79,1.9-4.13h4.14c.64,1.34,1.27,2.72,1.88,4.13.62,1.41,1.24,2.9,1.87,4.47.63,1.57,1.27,3.24,1.93,5.01s1.35,3.71,2.08,5.8h-4.68Zm-5.25-15.01c-.1.28-.24.67-.43,1.15-.19.49-.4,1.05-.64,1.68-.24.64-.51,1.34-.8,2.1-.3.76-.6,1.57-.9,2.4h5.55c-.3-.84-.58-1.65-.86-2.41-.28-.77-.54-1.47-.79-2.1-.25-.64-.47-1.2-.66-1.68s-.34-.86-.46-1.14Z"/>
        <path class="cls-6" d="m163.67,104.46c.77,0,1.31-.07,1.62-.22.32-.15.48-.44.48-.87,0-.34-.21-.63-.62-.88-.41-.25-1.04-.54-1.88-.85-.65-.24-1.25-.49-1.78-.76-.53-.26-.98-.57-1.36-.94-.37-.36-.66-.8-.87-1.3-.21-.5-.31-1.11-.31-1.82,0-1.38.51-2.47,1.54-3.28,1.03-.8,2.44-1.2,4.23-1.2.9,0,1.75.08,2.58.24.82.16,1.47.33,1.96.52l-.73,3.25c-.49-.17-1.01-.32-1.58-.45-.57-.13-1.21-.2-1.92-.2-1.31,0-1.96.36-1.96,1.09,0,.17.03.32.08.45.06.13.17.26.34.38s.4.25.69.39c.29.14.66.3,1.11.47.91.34,1.67.67,2.27,1,.6.33,1.07.69,1.41,1.07.35.38.59.81.73,1.27.14.47.21,1.01.21,1.62,0,1.45-.55,2.55-1.64,3.3-1.09.74-2.64,1.12-4.63,1.12-1.31,0-2.39-.11-3.26-.34-.87-.22-1.47-.41-1.81-.56l.7-3.39c.71.28,1.44.5,2.18.66.75.16,1.48.24,2.21.24Z"/>
        <path class="cls-6" d="m177.25,104.46c.77,0,1.31-.07,1.62-.22.32-.15.48-.44.48-.87,0-.34-.21-.63-.62-.88-.41-.25-1.04-.54-1.88-.85-.65-.24-1.25-.49-1.78-.76-.53-.26-.98-.57-1.36-.94-.37-.36-.66-.8-.87-1.3-.21-.5-.31-1.11-.31-1.82,0-1.38.51-2.47,1.54-3.28,1.03-.8,2.44-1.2,4.23-1.2.9,0,1.75.08,2.58.24.82.16,1.47.33,1.96.52l-.73,3.25c-.49-.17-1.01-.32-1.58-.45-.57-.13-1.21-.2-1.92-.2-1.31,0-1.96.36-1.96,1.09,0,.17.03.32.08.45.06.13.17.26.34.38s.4.25.69.39c.29.14.66.3,1.11.47.91.34,1.67.67,2.27,1,.6.33,1.07.69,1.41,1.07.35.38.59.81.73,1.27.14.47.21,1.01.21,1.62,0,1.45-.55,2.55-1.64,3.3-1.09.74-2.64,1.12-4.63,1.12-1.31,0-2.39-.11-3.26-.34-.87-.22-1.47-.41-1.81-.56l.7-3.39c.71.28,1.44.5,2.18.66.75.16,1.48.24,2.21.24Z"/>
        <path class="cls-6" d="m185.9,100.2c0-1.31.2-2.45.6-3.43s.93-1.8,1.58-2.45,1.4-1.15,2.25-1.48c.85-.34,1.72-.5,2.62-.5,2.09,0,3.74.64,4.96,1.92,1.21,1.28,1.82,3.16,1.82,5.64,0,.24,0,.51-.03.8-.02.29-.04.55-.06.77h-9.46c.09.86.49,1.54,1.2,2.04.71.5,1.66.76,2.86.76.77,0,1.52-.07,2.25-.21.74-.14,1.34-.31,1.81-.52l.56,3.39c-.22.11-.52.22-.9.34-.37.11-.79.21-1.25.29-.46.08-.95.15-1.47.21-.52.06-1.05.08-1.57.08-1.33,0-2.48-.2-3.46-.59-.98-.39-1.79-.93-2.44-1.61-.64-.68-1.12-1.49-1.43-2.42-.31-.93-.46-1.94-.46-3.02Zm9.8-1.6c-.02-.35-.08-.7-.18-1.04-.1-.34-.26-.63-.48-.9-.21-.26-.49-.48-.81-.64s-.73-.25-1.22-.25-.87.08-1.2.24c-.34.16-.62.37-.84.63-.22.26-.4.56-.52.91-.12.35-.21.7-.27,1.05h5.52Z"/>
        <path class="cls-6" d="m207.18,104.46c.77,0,1.31-.07,1.62-.22.32-.15.48-.44.48-.87,0-.34-.21-.63-.62-.88-.41-.25-1.04-.54-1.88-.85-.65-.24-1.25-.49-1.78-.76-.53-.26-.98-.57-1.36-.94-.37-.36-.66-.8-.87-1.3-.21-.5-.31-1.11-.31-1.82,0-1.38.51-2.47,1.54-3.28,1.03-.8,2.44-1.2,4.23-1.2.9,0,1.75.08,2.58.24.82.16,1.47.33,1.96.52l-.73,3.25c-.49-.17-1.01-.32-1.58-.45-.57-.13-1.21-.2-1.92-.2-1.31,0-1.96.36-1.96,1.09,0,.17.03.32.08.45.06.13.17.26.34.38s.4.25.69.39c.29.14.66.3,1.11.47.91.34,1.67.67,2.27,1,.6.33,1.07.69,1.41,1.07.35.38.59.81.73,1.27.14.47.21,1.01.21,1.62,0,1.45-.55,2.55-1.64,3.3-1.09.74-2.64,1.12-4.63,1.12-1.31,0-2.39-.11-3.26-.34-.87-.22-1.47-.41-1.81-.56l.7-3.39c.71.28,1.44.5,2.18.66.75.16,1.48.24,2.21.24Z"/>
        <path class="cls-6" d="m220.76,104.46c.77,0,1.31-.07,1.62-.22.32-.15.48-.44.48-.87,0-.34-.21-.63-.62-.88-.41-.25-1.04-.54-1.88-.85-.65-.24-1.25-.49-1.78-.76-.53-.26-.98-.57-1.36-.94-.37-.36-.66-.8-.87-1.3-.21-.5-.31-1.11-.31-1.82,0-1.38.51-2.47,1.54-3.28,1.03-.8,2.44-1.2,4.23-1.2.9,0,1.75.08,2.58.24.82.16,1.47.33,1.96.52l-.73,3.25c-.49-.17-1.01-.32-1.58-.45-.57-.13-1.21-.2-1.92-.2-1.31,0-1.96.36-1.96,1.09,0,.17.03.32.08.45.06.13.17.26.34.38s.4.25.69.39c.29.14.66.3,1.11.47.91.34,1.67.67,2.27,1,.6.33,1.07.69,1.41,1.07.35.38.59.81.73,1.27.14.47.21,1.01.21,1.62,0,1.45-.55,2.55-1.64,3.3-1.09.74-2.64,1.12-4.63,1.12-1.31,0-2.39-.11-3.26-.34-.87-.22-1.47-.41-1.81-.56l.7-3.39c.71.28,1.44.5,2.18.66.75.16,1.48.24,2.21.24Z"/>
        <path class="cls-6" d="m238.21,99.64c0-1.34-.17-2.3-.52-2.86-.35-.56-.94-.84-1.78-.84-.26,0-.53.01-.81.04-.28.03-.55.06-.81.1v11.37h-4.17v-14.22c.35-.09.77-.19,1.25-.29.48-.1.98-.2,1.51-.28.53-.08,1.08-.15,1.64-.2.56-.05,1.11-.07,1.65-.07,1.06,0,1.93.14,2.59.41.66.27,1.21.59,1.64.97.6-.43,1.28-.77,2.06-1.01.77-.24,1.49-.36,2.14-.36,1.18,0,2.14.16,2.9.49.76.33,1.36.79,1.81,1.39.45.6.76,1.31.92,2.13.17.82.25,1.74.25,2.74v8.32h-4.17v-7.81c0-1.34-.17-2.3-.52-2.86-.35-.56-.94-.84-1.78-.84-.22,0-.54.06-.94.17-.4.11-.73.25-.99.42.13.43.21.88.25,1.36.04.48.06.98.06,1.53v8.04h-4.17v-7.81Z"/>
        <path class="cls-6" d="m253.55,100.2c0-1.31.2-2.45.6-3.43s.93-1.8,1.58-2.45,1.4-1.15,2.25-1.48c.85-.34,1.72-.5,2.62-.5,2.09,0,3.74.64,4.96,1.92,1.21,1.28,1.82,3.16,1.82,5.64,0,.24,0,.51-.03.8-.02.29-.04.55-.06.77h-9.46c.09.86.49,1.54,1.2,2.04.71.5,1.66.76,2.86.76.77,0,1.52-.07,2.25-.21.74-.14,1.34-.31,1.81-.52l.56,3.39c-.22.11-.52.22-.9.34-.37.11-.79.21-1.25.29-.46.08-.95.15-1.47.21-.52.06-1.05.08-1.57.08-1.33,0-2.48-.2-3.46-.59-.98-.39-1.79-.93-2.44-1.61-.64-.68-1.12-1.49-1.43-2.42-.31-.93-.46-1.94-.46-3.02Zm9.8-1.6c-.02-.35-.08-.7-.18-1.04-.1-.34-.26-.63-.48-.9-.21-.26-.49-.48-.81-.64s-.73-.25-1.22-.25-.87.08-1.2.24c-.34.16-.62.37-.84.63-.22.26-.4.56-.52.91-.12.35-.21.7-.27,1.05h5.52Z"/>
        <path class="cls-6" d="m270.6,93.23c.71-.21,1.62-.4,2.74-.57s2.3-.27,3.53-.27,2.29.16,3.12.49c.83.33,1.49.79,1.97,1.39.48.6.83,1.31,1.04,2.13.21.82.31,1.74.31,2.74v8.32h-4.17v-7.81c0-1.34-.18-2.3-.53-2.86s-1.02-.84-1.99-.84c-.3,0-.62.01-.95.04-.34.03-.63.06-.9.1v11.37h-4.17v-14.22Z"/>
        <path class="cls-6" d="m286.95,89.06l4.17-.67v4.34h5.01v3.47h-5.01v5.18c0,.88.15,1.58.46,2.1.31.52.93.78,1.86.78.45,0,.91-.04,1.39-.13s.91-.2,1.3-.35l.59,3.25c-.5.21-1.06.38-1.68.53-.62.15-1.37.22-2.27.22-1.14,0-2.08-.15-2.83-.46s-1.34-.74-1.79-1.29c-.45-.55-.76-1.22-.94-2-.18-.78-.27-1.65-.27-2.6v-12.38Z"/>
      </g>
      <rect class="cls-7" x="10.93" y="185.6" width="349.44" height="88.13" rx="10.77" ry="10.77"/>
      <g>
        <path class="cls-6" d="m38.47,220.9c2.91,0,5.14.52,6.69,1.55,1.55,1.04,2.32,2.65,2.32,4.83,0,1.36-.31,2.47-.94,3.32-.63.85-1.53,1.52-2.7,2,.39.49.8,1.04,1.23,1.67.43.63.85,1.28,1.27,1.96.42.68.83,1.39,1.22,2.13s.76,1.46,1.09,2.17h-4.88c-.36-.63-.72-1.28-1.08-1.93-.37-.65-.74-1.29-1.12-1.9-.38-.62-.76-1.2-1.14-1.75-.37-.55-.75-1.05-1.12-1.5h-2.16v7.08h-4.37v-19.12c.95-.19,1.94-.32,2.95-.39,1.02-.07,1.93-.11,2.73-.11Zm.25,3.72c-.32,0-.6,0-.85.03-.25.02-.49.04-.71.06v5.26h1.23c1.64,0,2.82-.21,3.53-.62.71-.41,1.06-1.11,1.06-2.1s-.36-1.63-1.08-2.03c-.72-.4-1.78-.6-3.18-.6Z"/>
        <path class="cls-6" d="m49.78,233.27c0-1.31.2-2.45.6-3.43s.93-1.8,1.58-2.45,1.4-1.15,2.25-1.48c.85-.34,1.72-.5,2.62-.5,2.09,0,3.74.64,4.96,1.92,1.21,1.28,1.82,3.16,1.82,5.64,0,.24,0,.51-.03.8-.02.29-.04.55-.06.77h-9.46c.09.86.49,1.54,1.2,2.04.71.5,1.66.76,2.86.76.77,0,1.52-.07,2.25-.21.74-.14,1.34-.31,1.81-.52l.56,3.39c-.22.11-.52.22-.9.34-.37.11-.79.21-1.25.29-.46.08-.95.15-1.47.21-.52.06-1.05.08-1.57.08-1.33,0-2.48-.2-3.46-.59-.98-.39-1.79-.93-2.44-1.61-.64-.68-1.12-1.49-1.43-2.42-.31-.93-.46-1.94-.46-3.02Zm9.8-1.6c-.02-.35-.08-.7-.18-1.04-.1-.34-.26-.63-.48-.9-.21-.26-.49-.48-.81-.64s-.73-.25-1.22-.25-.87.08-1.2.24c-.34.16-.62.37-.84.63-.22.26-.4.56-.52.91-.12.35-.21.7-.27,1.05h5.52Z"/>
        <path class="cls-6" d="m79.55,238.68c0,2.41-.61,4.2-1.83,5.36-1.22,1.17-3.11,1.75-5.67,1.75-.9,0-1.79-.08-2.69-.24s-1.73-.37-2.49-.63l.73-3.5c.65.26,1.34.47,2.06.62.72.15,1.54.22,2.45.22,1.19,0,2.04-.26,2.53-.78.49-.52.74-1.19.74-2.02v-.53c-.45.21-.91.36-1.39.46-.48.1-.99.15-1.55.15-2.03,0-3.59-.6-4.68-1.81s-1.62-2.89-1.62-5.05c0-1.08.17-2.07.5-2.95.34-.89.83-1.65,1.47-2.28.64-.63,1.43-1.12,2.37-1.47.93-.35,1.99-.52,3.16-.52.5,0,1.02.02,1.55.07.53.05,1.06.11,1.58.18.52.07,1.02.16,1.5.27s.9.21,1.27.32v12.38Zm-9.16-5.99c0,2.33.94,3.5,2.83,3.5.43,0,.83-.06,1.2-.17.37-.11.69-.24.95-.39v-6.66c-.21-.04-.45-.07-.73-.1-.28-.03-.61-.04-.98-.04-1.1,0-1.92.36-2.46,1.09-.54.73-.81,1.65-.81,2.77Z"/>
        <path class="cls-6" d="m96.04,240.02c-.71.21-1.62.4-2.74.57s-2.3.27-3.53.27-2.29-.17-3.12-.5c-.83-.34-1.49-.81-1.97-1.41-.49-.61-.83-1.33-1.04-2.17-.21-.84-.31-1.76-.31-2.77v-8.2h4.17v7.7c0,1.34.18,2.31.53,2.91.35.6,1.02.9,1.99.9.3,0,.62-.01.95-.04.34-.03.63-.06.9-.1v-11.37h4.17v14.22Z"/>
        <path class="cls-6" d="m105.84,240.8c-1.21-.02-2.2-.15-2.95-.39-.76-.24-1.35-.58-1.79-1.02-.44-.44-.74-.97-.9-1.6-.16-.62-.24-1.33-.24-2.11v-16.21l4.17-.67v16.04c0,.37.03.71.08,1.01.06.3.16.55.32.76.16.21.39.37.69.5.3.13.7.21,1.2.25l-.59,3.44Z"/>
        <path class="cls-6" d="m114.52,225.4c1.23,0,2.26.14,3.08.42.82.28,1.48.68,1.97,1.2.49.52.84,1.16,1.05,1.9.21.75.31,1.58.31,2.49v8.68c-.6.13-1.43.28-2.49.46s-2.35.27-3.86.27c-.95,0-1.82-.08-2.59-.25s-1.44-.44-2-.83c-.56-.38-.99-.88-1.29-1.5-.3-.62-.45-1.37-.45-2.27s.17-1.59.52-2.18c.35-.6.81-1.07,1.39-1.43.58-.35,1.24-.61,1.99-.77.75-.16,1.52-.24,2.32-.24.54,0,1.02.02,1.44.07.42.05.76.11,1.02.18v-.39c0-.71-.21-1.28-.64-1.71-.43-.43-1.18-.64-2.24-.64-.71,0-1.41.05-2.1.15-.69.1-1.29.25-1.79.43l-.53-3.36c.24-.07.55-.15.91-.24.36-.08.76-.16,1.19-.22.43-.07.88-.12,1.36-.17s.96-.07,1.44-.07Zm.34,12.21c.41,0,.8,0,1.18-.03.37-.02.67-.05.9-.08v-3.16c-.17-.04-.42-.07-.76-.11-.34-.04-.64-.06-.92-.06-.39,0-.76.02-1.11.07-.35.05-.65.14-.91.27-.26.13-.47.31-.62.53-.15.22-.22.5-.22.84,0,.65.22,1.11.66,1.36.44.25,1.04.38,1.81.38Z"/>
        <path class="cls-6" d="m124.57,222.13l4.17-.67v4.34h5.01v3.47h-5.01v5.18c0,.88.15,1.58.46,2.1.31.52.93.78,1.86.78.45,0,.91-.04,1.39-.13s.91-.2,1.3-.35l.59,3.25c-.5.21-1.06.38-1.68.53-.62.15-1.37.22-2.27.22-1.14,0-2.08-.15-2.83-.46s-1.34-.74-1.79-1.29c-.45-.55-.76-1.22-.94-2-.18-.78-.27-1.65-.27-2.6v-12.38Z"/>
        <path class="cls-6" d="m150.36,233.13c0,1.16-.17,2.22-.5,3.18s-.82,1.78-1.46,2.46c-.63.68-1.4,1.21-2.28,1.58-.89.37-1.88.56-2.98.56s-2.07-.19-2.95-.56c-.89-.37-1.65-.9-2.28-1.58-.63-.68-1.13-1.5-1.48-2.46-.35-.96-.53-2.02-.53-3.18s.18-2.21.55-3.16c.36-.95.87-1.76,1.51-2.44.64-.67,1.41-1.19,2.3-1.57.89-.37,1.85-.56,2.9-.56s2.04.19,2.93.56c.89.37,1.65.9,2.28,1.57.63.67,1.13,1.48,1.48,2.44.35.95.53,2.01.53,3.16Zm-4.26,0c0-1.29-.26-2.3-.77-3.04-.51-.74-1.25-1.11-2.2-1.11s-1.69.37-2.21,1.11c-.52.74-.78,1.75-.78,3.04s.26,2.31.78,3.07c.52.76,1.26,1.13,2.21,1.13s1.68-.38,2.2-1.13c.51-.76.77-1.78.77-3.07Z"/>
        <path class="cls-6" d="m162.45,229.49c-.37-.09-.81-.19-1.32-.29-.5-.1-1.05-.15-1.62-.15-.26,0-.57.02-.94.07-.36.05-.64.1-.83.15v11.26h-4.17v-13.94c.75-.26,1.63-.51,2.65-.74,1.02-.23,2.15-.35,3.4-.35.22,0,.49.01.81.04.32.03.63.07.95.11.32.05.63.1.95.17.32.07.59.14.81.24l-.7,3.44Z"/>
        <path class="cls-6" d="m179.37,225.8c-.84,2.84-1.72,5.5-2.64,7.98-.92,2.48-1.92,4.89-3,7.22-.39.84-.79,1.55-1.18,2.14-.39.59-.82,1.07-1.29,1.46-.47.38-1,.66-1.58.84-.59.18-1.28.27-2.06.27-.65,0-1.26-.06-1.81-.18-.55-.12-1-.26-1.36-.41l.73-3.33c.43.15.81.25,1.15.31.34.06.69.08,1.06.08.75,0,1.32-.2,1.72-.6.4-.4.74-.96,1.02-1.67-.95-1.87-1.91-3.96-2.86-6.29-.95-2.32-1.85-4.93-2.69-7.83h4.42c.19.73.41,1.52.66,2.37.25.85.52,1.71.8,2.58.28.87.57,1.71.86,2.53.29.82.57,1.57.83,2.24.24-.67.5-1.42.76-2.24.26-.82.52-1.67.77-2.53.25-.87.5-1.73.73-2.58.23-.85.44-1.64.63-2.37h4.31Z"/>
        <path class="cls-6" d="m197.42,240.92c-3.15,0-5.56-.88-7.21-2.63-1.65-1.75-2.48-4.25-2.48-7.48,0-1.61.25-3.04.76-4.3.5-1.26,1.19-2.32,2.07-3.19.88-.87,1.92-1.53,3.14-1.97,1.21-.45,2.53-.67,3.95-.67.82,0,1.57.06,2.24.18.67.12,1.26.26,1.76.42.5.16.92.32,1.26.49.34.17.58.3.73.39l-1.26,3.53c-.6-.32-1.29-.59-2.09-.81-.79-.22-1.69-.34-2.7-.34-.67,0-1.33.11-1.97.34-.64.22-1.21.58-1.71,1.08s-.89,1.13-1.19,1.92c-.3.78-.45,1.74-.45,2.86,0,.9.1,1.73.29,2.51.2.77.51,1.44.95,2,.44.56,1.01,1,1.72,1.33s1.57.49,2.58.49c.63,0,1.2-.04,1.71-.11.5-.07.95-.16,1.34-.27.39-.1.74-.22,1.04-.35.3-.13.57-.25.81-.36l1.2,3.5c-.62.37-1.48.71-2.6,1.01s-2.42.45-3.89.45Z"/>
        <path class="cls-6" d="m219.88,233.13c0,1.16-.17,2.22-.5,3.18s-.82,1.78-1.46,2.46c-.63.68-1.4,1.21-2.28,1.58-.89.37-1.88.56-2.98.56s-2.07-.19-2.95-.56c-.89-.37-1.65-.9-2.28-1.58-.63-.68-1.13-1.5-1.48-2.46-.35-.96-.53-2.02-.53-3.18s.18-2.21.55-3.16c.36-.95.87-1.76,1.51-2.44.64-.67,1.41-1.19,2.3-1.57.89-.37,1.85-.56,2.9-.56s2.04.19,2.93.56c.89.37,1.65.9,2.28,1.57.63.67,1.13,1.48,1.48,2.44.35.95.53,2.01.53,3.16Zm-4.26,0c0-1.29-.26-2.3-.77-3.04-.51-.74-1.25-1.11-2.2-1.11s-1.69.37-2.21,1.11c-.52.74-.78,1.75-.78,3.04s.26,2.31.78,3.07c.52.76,1.26,1.13,2.21,1.13s1.68-.38,2.2-1.13c.51-.76.77-1.78.77-3.07Z"/>
        <path class="cls-6" d="m231.19,232.71c0-1.34-.17-2.3-.52-2.86-.35-.56-.94-.84-1.78-.84-.26,0-.53.01-.81.04-.28.03-.55.06-.81.1v11.37h-4.17v-14.22c.35-.09.77-.19,1.25-.29.48-.1.98-.2,1.51-.28.53-.08,1.08-.15,1.64-.2.56-.05,1.11-.07,1.65-.07,1.06,0,1.93.14,2.59.41.66.27,1.21.59,1.64.97.6-.43,1.28-.77,2.06-1.01.77-.24,1.49-.36,2.14-.36,1.18,0,2.14.16,2.9.49.76.33,1.36.79,1.81,1.39.45.6.76,1.31.92,2.13.17.82.25,1.74.25,2.74v8.32h-4.17v-7.81c0-1.34-.17-2.3-.52-2.86-.35-.56-.94-.84-1.78-.84-.22,0-.54.06-.94.17-.4.11-.73.25-.99.42.13.43.21.88.25,1.36.04.48.06.98.06,1.53v8.04h-4.17v-7.81Z"/>
        <path class="cls-6" d="m260.93,233.16c0,1.14-.14,2.17-.42,3.11-.28.93-.69,1.74-1.23,2.41-.54.67-1.21,1.19-2.02,1.57-.8.37-1.73.56-2.77.56-.58,0-1.12-.06-1.62-.17-.5-.11-.99-.27-1.46-.48v5.54h-4.17v-19.4c.37-.11.8-.22,1.29-.32.49-.1.99-.19,1.53-.27.53-.07,1.07-.14,1.62-.18.55-.05,1.08-.07,1.58-.07,1.21,0,2.3.18,3.25.55.95.36,1.75.88,2.41,1.54.65.66,1.15,1.47,1.5,2.42.35.95.52,2.02.52,3.19Zm-4.26.11c0-1.29-.29-2.32-.87-3.09-.58-.77-1.44-1.16-2.58-1.16-.37,0-.72.01-1.04.04-.32.03-.58.06-.78.1v7.53c.26.17.6.31,1.02.42.42.11.84.17,1.27.17,1.98,0,2.97-1.33,2.97-4Z"/>
        <path class="cls-6" d="m270.03,240.8c-1.21-.02-2.2-.15-2.95-.39-.76-.24-1.35-.58-1.79-1.02-.44-.44-.74-.97-.9-1.6-.16-.62-.24-1.33-.24-2.11v-16.21l4.17-.67v16.04c0,.37.03.71.08,1.01.06.3.16.55.32.76.16.21.39.37.69.5.3.13.7.21,1.2.25l-.59,3.44Z"/>
        <path class="cls-6" d="m277.56,221.54c0,.77-.25,1.37-.74,1.81-.5.44-1.08.66-1.75.66s-1.26-.22-1.75-.66c-.5-.44-.74-1.04-.74-1.81s.25-1.37.74-1.81c.49-.44,1.08-.66,1.75-.66s1.25.22,1.75.66c.49.44.74,1.04.74,1.81Zm-.39,18.98h-4.17v-14.73h4.17v14.73Z"/>
        <path class="cls-6" d="m286.38,225.4c1.23,0,2.26.14,3.08.42.82.28,1.48.68,1.97,1.2.49.52.84,1.16,1.05,1.9.21.75.31,1.58.31,2.49v8.68c-.6.13-1.43.28-2.49.46s-2.35.27-3.86.27c-.95,0-1.82-.08-2.59-.25s-1.44-.44-2-.83c-.56-.38-.99-.88-1.29-1.5-.3-.62-.45-1.37-.45-2.27s.17-1.59.52-2.18c.35-.6.81-1.07,1.39-1.43.58-.35,1.24-.61,1.99-.77.75-.16,1.52-.24,2.32-.24.54,0,1.02.02,1.44.07.42.05.76.11,1.02.18v-.39c0-.71-.21-1.28-.64-1.71-.43-.43-1.18-.64-2.24-.64-.71,0-1.41.05-2.1.15-.69.1-1.29.25-1.79.43l-.53-3.36c.24-.07.55-.15.91-.24.36-.08.76-.16,1.19-.22.43-.07.88-.12,1.36-.17s.96-.07,1.44-.07Zm.34,12.21c.41,0,.8,0,1.18-.03.37-.02.67-.05.9-.08v-3.16c-.17-.04-.42-.07-.76-.11-.34-.04-.64-.06-.92-.06-.39,0-.76.02-1.11.07-.35.05-.65.14-.91.27-.26.13-.47.31-.62.53-.15.22-.22.5-.22.84,0,.65.22,1.11.66,1.36.44.25,1.04.38,1.81.38Z"/>
        <path class="cls-6" d="m296.57,226.3c.71-.21,1.62-.4,2.74-.57s2.3-.27,3.53-.27,2.29.16,3.12.49c.83.33,1.49.79,1.97,1.39.48.6.83,1.31,1.04,2.13.21.82.31,1.74.31,2.74v8.32h-4.17v-7.81c0-1.34-.18-2.3-.53-2.86s-1.02-.84-1.99-.84c-.3,0-.62.01-.95.04-.34.03-.63.06-.9.1v11.37h-4.17v-14.22Z"/>
        <path class="cls-6" d="m312.36,233.16c0-1.06.17-2.07.52-3.01.35-.94.84-1.76,1.5-2.46.65-.7,1.45-1.26,2.38-1.67s2-.62,3.19-.62c.78,0,1.5.07,2.16.21.65.14,1.29.34,1.9.6l-.87,3.33c-.39-.15-.82-.28-1.29-.39-.47-.11-.99-.17-1.57-.17-1.23,0-2.15.38-2.76,1.15-.61.77-.91,1.77-.91,3.02,0,1.33.28,2.35.85,3.08.57.73,1.56,1.09,2.98,1.09.5,0,1.04-.05,1.62-.14.58-.09,1.11-.24,1.6-.45l.59,3.42c-.49.21-1.09.38-1.82.53s-1.53.22-2.41.22c-1.34,0-2.5-.2-3.47-.6-.97-.4-1.77-.95-2.39-1.64-.63-.69-1.08-1.51-1.37-2.45-.29-.94-.43-1.96-.43-3.07Z"/>
        <path class="cls-6" d="m325.66,233.27c0-1.31.2-2.45.6-3.43s.93-1.8,1.58-2.45,1.4-1.15,2.25-1.48c.85-.34,1.72-.5,2.62-.5,2.09,0,3.74.64,4.96,1.92,1.21,1.28,1.82,3.16,1.82,5.64,0,.24,0,.51-.03.8-.02.29-.04.55-.06.77h-9.46c.09.86.49,1.54,1.2,2.04.71.5,1.66.76,2.86.76.77,0,1.52-.07,2.25-.21.74-.14,1.34-.31,1.81-.52l.56,3.39c-.22.11-.52.22-.9.34-.37.11-.79.21-1.25.29-.46.08-.95.15-1.47.21-.52.06-1.05.08-1.57.08-1.33,0-2.48-.2-3.46-.59-.98-.39-1.79-.93-2.44-1.61-.64-.68-1.12-1.49-1.43-2.42-.31-.93-.46-1.94-.46-3.02Zm9.8-1.6c-.02-.35-.08-.7-.18-1.04-.1-.34-.26-.63-.48-.9-.21-.26-.49-.48-.81-.64s-.73-.25-1.22-.25-.87.08-1.2.24c-.34.16-.62.37-.84.63-.22.26-.4.56-.52.91-.12.35-.21.7-.27,1.05h5.52Z"/>
      </g>
      <rect class="cls-7" x="10.93" y="325.94" width="349.44" height="88.13" rx="10.77" ry="10.77"/>
      <g>
        <path class="cls-6" d="m92.73,361.46h4.37v19.4h-4.37v-19.4Z"/>
        <path class="cls-6" d="m115.97,361.46v3.72h-5.85v15.68h-4.37v-15.68h-5.85v-3.72h16.07Z"/>
        <path class="cls-6" d="m134.96,364.82c-2.04,0-3.5.56-4.41,1.69-.91,1.13-1.36,2.67-1.36,4.63,0,.95.11,1.82.34,2.59s.56,1.44,1.01,2c.45.56,1.01.99,1.68,1.3.67.31,1.46.46,2.35.46.49,0,.9,0,1.25-.03.35-.02.65-.06.91-.11v-6.75h4.37v9.6c-.52.21-1.36.42-2.52.66-1.16.23-2.59.35-4.28.35-1.46,0-2.78-.22-3.96-.67-1.19-.45-2.2-1.1-3.04-1.96-.84-.86-1.49-1.91-1.95-3.16-.46-1.25-.69-2.68-.69-4.28s.25-3.06.76-4.31c.5-1.25,1.19-2.31,2.07-3.18.88-.87,1.91-1.53,3.09-1.97,1.19-.45,2.45-.67,3.79-.67.91,0,1.74.06,2.48.18.74.12,1.37.26,1.9.42.53.16.97.32,1.32.49.35.17.59.3.74.39l-1.26,3.5c-.6-.32-1.28-.59-2.06-.83-.77-.23-1.62-.35-2.53-.35Z"/>
        <path class="cls-6" d="m158.64,373.47c0,1.16-.17,2.22-.5,3.18-.34.96-.82,1.78-1.46,2.46-.63.68-1.4,1.21-2.28,1.58-.89.37-1.88.56-2.98.56s-2.07-.19-2.95-.56c-.89-.37-1.65-.9-2.28-1.58-.63-.68-1.13-1.5-1.48-2.46-.35-.96-.53-2.02-.53-3.18s.18-2.21.55-3.16c.36-.95.87-1.76,1.51-2.44s1.41-1.19,2.3-1.57c.89-.37,1.85-.56,2.9-.56s2.04.19,2.93.56c.89.37,1.65.9,2.28,1.57.63.67,1.13,1.48,1.48,2.44.35.95.53,2.01.53,3.16Zm-4.26,0c0-1.29-.26-2.3-.77-3.04-.51-.74-1.25-1.11-2.2-1.11s-1.69.37-2.21,1.11-.78,1.75-.78,3.04.26,2.31.78,3.07,1.26,1.13,2.21,1.13,1.68-.38,2.2-1.13c.51-.76.77-1.78.77-3.07Z"/>
        <path class="cls-6" d="m165.5,380.86c-.96-1.87-1.93-4.05-2.91-6.55s-1.92-5.23-2.8-8.18h4.42c.19.73.41,1.52.66,2.37.25.85.52,1.71.79,2.58s.54,1.71.82,2.53c.27.82.54,1.57.8,2.24.24-.67.51-1.42.79-2.24s.56-1.67.83-2.53c.27-.87.53-1.73.79-2.58.25-.85.47-1.64.66-2.37h4.31c-.88,2.95-1.81,5.67-2.79,8.18-.98,2.5-1.95,4.69-2.91,6.55h-3.46Z"/>
        <path class="cls-6" d="m175.78,373.61c0-1.31.2-2.45.6-3.43.4-.98.93-1.8,1.58-2.45s1.4-1.15,2.25-1.48c.85-.34,1.72-.5,2.62-.5,2.09,0,3.74.64,4.96,1.92,1.21,1.28,1.82,3.16,1.82,5.64,0,.24,0,.51-.03.8s-.04.55-.06.77h-9.46c.09.86.49,1.54,1.2,2.04.71.5,1.66.76,2.86.76.77,0,1.52-.07,2.25-.21.74-.14,1.34-.31,1.81-.52l.56,3.39c-.22.11-.52.22-.9.34-.37.11-.79.21-1.25.29-.46.08-.95.15-1.47.21-.52.06-1.05.08-1.57.08-1.33,0-2.48-.2-3.46-.59-.98-.39-1.79-.93-2.44-1.61s-1.12-1.49-1.43-2.42c-.31-.93-.46-1.94-.46-3.02Zm9.8-1.6c-.02-.35-.08-.7-.18-1.04s-.26-.63-.48-.9c-.21-.26-.49-.48-.81-.64s-.73-.25-1.22-.25-.87.08-1.2.24c-.34.16-.62.37-.84.63-.22.26-.4.56-.52.91-.12.35-.21.7-.27,1.05h5.52Z"/>
        <path class="cls-6" d="m201.71,369.83c-.37-.09-.81-.19-1.32-.29s-1.05-.15-1.62-.15c-.26,0-.57.02-.94.07-.36.05-.64.1-.83.15v11.26h-4.17v-13.94c.75-.26,1.63-.51,2.65-.74,1.02-.23,2.15-.35,3.4-.35.22,0,.49.01.81.04s.63.07.95.11.63.1.95.17c.32.07.59.14.81.24l-.7,3.44Z"/>
        <path class="cls-6" d="m204.65,366.64c.71-.21,1.62-.4,2.74-.57s2.3-.27,3.53-.27,2.29.16,3.12.49c.83.33,1.49.79,1.97,1.39.48.6.83,1.31,1.04,2.13s.31,1.74.31,2.74v8.32h-4.17v-7.81c0-1.34-.18-2.3-.53-2.86s-1.02-.84-1.99-.84c-.3,0-.62.01-.95.04-.34.03-.63.06-.9.1v11.37h-4.17v-14.22Z"/>
        <path class="cls-6" d="m226.43,365.74c1.23,0,2.26.14,3.08.42.82.28,1.48.68,1.97,1.2.49.52.84,1.16,1.05,1.9.21.75.31,1.58.31,2.49v8.68c-.6.13-1.43.29-2.49.46s-2.35.27-3.86.27c-.95,0-1.82-.08-2.59-.25s-1.44-.44-2-.83-.99-.88-1.29-1.5c-.3-.62-.45-1.37-.45-2.27s.17-1.59.52-2.18c.35-.6.81-1.07,1.39-1.43.58-.35,1.24-.61,1.99-.77.75-.16,1.52-.24,2.32-.24.54,0,1.02.02,1.44.07.42.05.76.11,1.02.18v-.39c0-.71-.21-1.28-.64-1.71-.43-.43-1.18-.64-2.24-.64-.71,0-1.41.05-2.1.15s-1.29.25-1.79.43l-.53-3.36c.24-.07.55-.15.91-.24.36-.08.76-.16,1.19-.22.43-.07.88-.12,1.36-.17s.96-.07,1.44-.07Zm.34,12.21c.41,0,.8,0,1.18-.03.37-.02.67-.05.9-.08v-3.16c-.17-.04-.42-.07-.76-.11-.34-.04-.64-.06-.92-.06-.39,0-.76.02-1.11.07-.35.05-.65.14-.91.27-.26.13-.47.31-.62.53-.15.22-.22.5-.22.84,0,.65.22,1.11.66,1.36.44.25,1.04.38,1.81.38Z"/>
        <path class="cls-6" d="m236.62,366.64c.71-.21,1.62-.4,2.74-.57s2.3-.27,3.53-.27,2.29.16,3.12.49c.83.33,1.49.79,1.97,1.39.48.6.83,1.31,1.04,2.13s.31,1.74.31,2.74v8.32h-4.17v-7.81c0-1.34-.18-2.3-.53-2.86s-1.02-.84-1.99-.84c-.3,0-.62.01-.95.04-.34.03-.63.06-.9.1v11.37h-4.17v-14.22Z"/>
        <path class="cls-6" d="m252.42,373.5c0-1.06.17-2.07.52-3.01s.84-1.76,1.5-2.46,1.45-1.25,2.38-1.67c.93-.41,2-.62,3.19-.62.78,0,1.5.07,2.16.21.65.14,1.29.34,1.9.6l-.87,3.33c-.39-.15-.82-.28-1.29-.39-.47-.11-.99-.17-1.57-.17-1.23,0-2.15.38-2.76,1.15s-.91,1.77-.91,3.02c0,1.33.28,2.35.85,3.08.57.73,1.56,1.09,2.98,1.09.5,0,1.04-.05,1.62-.14.58-.09,1.11-.24,1.6-.45l.59,3.42c-.49.21-1.09.38-1.82.53s-1.53.22-2.41.22c-1.34,0-2.5-.2-3.47-.6-.97-.4-1.77-.95-2.39-1.64s-1.08-1.51-1.37-2.45-.43-1.96-.43-3.07Z"/>
        <path class="cls-6" d="m265.72,373.61c0-1.31.2-2.45.6-3.43.4-.98.93-1.8,1.58-2.45s1.4-1.15,2.25-1.48c.85-.34,1.72-.5,2.62-.5,2.09,0,3.74.64,4.96,1.92,1.21,1.28,1.82,3.16,1.82,5.64,0,.24,0,.51-.03.8s-.04.55-.06.77h-9.46c.09.86.49,1.54,1.2,2.04.71.5,1.66.76,2.86.76.77,0,1.52-.07,2.25-.21.74-.14,1.34-.31,1.81-.52l.56,3.39c-.22.11-.52.22-.9.34-.37.11-.79.21-1.25.29-.46.08-.95.15-1.47.21-.52.06-1.05.08-1.57.08-1.33,0-2.48-.2-3.46-.59-.98-.39-1.79-.93-2.44-1.61s-1.12-1.49-1.43-2.42c-.31-.93-.46-1.94-.46-3.02Zm9.8-1.6c-.02-.35-.08-.7-.18-1.04s-.26-.63-.48-.9c-.21-.26-.49-.48-.81-.64s-.73-.25-1.22-.25-.87.08-1.2.24c-.34.16-.62.37-.84.63-.22.26-.4.56-.52.91-.12.35-.21.7-.27,1.05h5.52Z"/>
      </g>
      <rect class="cls-7" x="10.93" y="459.01" width="349.44" height="88.13" rx="10.77" ry="10.77"/>
      <g>
        <path class="cls-6" d="m46.8,510.61c.62,0,1.12-.05,1.53-.15.4-.1.72-.24.97-.42.24-.18.41-.39.5-.63.09-.24.14-.51.14-.81,0-.63-.3-1.16-.9-1.58-.6-.42-1.62-.87-3.08-1.36-.63-.22-1.27-.48-1.9-.77-.63-.29-1.2-.65-1.71-1.09-.5-.44-.92-.97-1.23-1.6-.32-.62-.48-1.39-.48-2.28s.17-1.7.5-2.42c.34-.72.81-1.33,1.43-1.83.62-.5,1.36-.89,2.24-1.16.88-.27,1.87-.41,2.97-.41,1.31,0,2.44.14,3.39.42.95.28,1.74.59,2.35.92l-1.26,3.44c-.54-.28-1.14-.53-1.81-.74-.66-.21-1.46-.32-2.39-.32-1.05,0-1.8.14-2.25.43-.46.29-.69.73-.69,1.33,0,.36.08.65.25.9s.41.46.71.66c.31.2.66.37,1.06.53.4.16.84.32,1.33.49,1.01.37,1.89.74,2.63,1.11.75.36,1.37.79,1.86,1.27.49.49.86,1.05,1.11,1.71.24.65.36,1.45.36,2.38,0,1.81-.63,3.22-1.9,4.21-1.27,1-3.18,1.5-5.74,1.5-.86,0-1.63-.05-2.32-.15-.69-.1-1.3-.23-1.83-.38-.53-.15-.99-.31-1.37-.48-.38-.17-.7-.33-.97-.48l1.23-3.47c.58.32,1.29.6,2.14.85.85.25,1.89.38,3.12.38Z"/>
        <path class="cls-6" d="m56.82,506.69c0-1.31.2-2.45.6-3.43.4-.98.93-1.8,1.58-2.45s1.4-1.15,2.25-1.48c.85-.34,1.72-.5,2.62-.5,2.09,0,3.74.64,4.96,1.92,1.21,1.28,1.82,3.16,1.82,5.64,0,.24,0,.51-.03.8s-.04.55-.06.77h-9.46c.09.86.49,1.54,1.2,2.04.71.5,1.66.76,2.86.76.77,0,1.52-.07,2.25-.21.74-.14,1.34-.31,1.81-.52l.56,3.39c-.22.11-.52.22-.9.34-.37.11-.79.21-1.25.29-.46.08-.95.15-1.47.21-.52.06-1.05.08-1.57.08-1.33,0-2.48-.2-3.46-.59-.98-.39-1.79-.93-2.44-1.61s-1.12-1.49-1.43-2.42c-.31-.93-.46-1.94-.46-3.02Zm9.8-1.6c-.02-.35-.08-.7-.18-1.04s-.26-.63-.48-.9c-.21-.26-.49-.48-.81-.64s-.73-.25-1.22-.25-.87.08-1.2.24c-.34.16-.62.37-.84.63-.22.26-.4.56-.52.91-.12.35-.21.7-.27,1.05h5.52Z"/>
        <path class="cls-6" d="m73.18,506.57c0-1.06.17-2.07.52-3.01s.84-1.76,1.5-2.46,1.45-1.25,2.38-1.67c.93-.41,2-.62,3.19-.62.78,0,1.5.07,2.16.21.65.14,1.29.34,1.9.6l-.87,3.33c-.39-.15-.82-.28-1.29-.39-.47-.11-.99-.17-1.57-.17-1.23,0-2.15.38-2.76,1.15s-.91,1.77-.91,3.02c0,1.33.28,2.35.85,3.08.57.73,1.56,1.09,2.98,1.09.5,0,1.04-.05,1.62-.14.58-.09,1.11-.24,1.6-.45l.59,3.42c-.49.21-1.09.38-1.82.53s-1.53.22-2.41.22c-1.34,0-2.5-.2-3.47-.6-.97-.4-1.77-.95-2.39-1.64s-1.08-1.51-1.37-2.45-.43-1.96-.43-3.07Z"/>
        <path class="cls-6" d="m100.45,513.43c-.71.21-1.62.4-2.74.57-1.12.18-2.3.27-3.53.27s-2.29-.17-3.12-.5c-.83-.34-1.49-.81-1.97-1.41-.49-.61-.83-1.33-1.04-2.17-.21-.84-.31-1.76-.31-2.77v-8.2h4.17v7.7c0,1.34.18,2.32.53,2.91.35.6,1.02.9,1.99.9.3,0,.62-.01.95-.04.34-.03.63-.06.9-.1v-11.37h4.17v14.22Z"/>
        <path class="cls-6" d="m113.24,502.91c-.37-.09-.81-.19-1.32-.29s-1.05-.15-1.62-.15c-.26,0-.57.02-.94.07-.36.05-.64.1-.83.15v11.26h-4.17v-13.94c.75-.26,1.63-.51,2.65-.74,1.02-.23,2.15-.35,3.4-.35.22,0,.49.01.81.04s.63.07.95.11.63.1.95.17c.32.07.59.14.81.24l-.7,3.44Z"/>
        <path class="cls-6" d="m120.75,494.95c0,.77-.25,1.37-.74,1.81-.5.44-1.08.66-1.75.66s-1.26-.22-1.75-.66c-.5-.44-.74-1.04-.74-1.81s.25-1.37.74-1.81c.49-.44,1.08-.66,1.75-.66s1.25.22,1.75.66c.49.44.74,1.04.74,1.81Zm-.39,18.98h-4.17v-14.73h4.17v14.73Z"/>
        <path class="cls-6" d="m124.14,495.54l4.17-.67v4.34h5.01v3.47h-5.01v5.18c0,.88.15,1.58.46,2.1s.93.78,1.86.78c.45,0,.91-.04,1.39-.13s.91-.2,1.3-.35l.59,3.25c-.5.21-1.06.38-1.68.53-.62.15-1.37.22-2.27.22-1.14,0-2.08-.15-2.83-.46s-1.34-.74-1.79-1.29c-.45-.55-.76-1.22-.94-2-.18-.78-.27-1.65-.27-2.6v-12.38Z"/>
        <path class="cls-6" d="m150.09,499.21c-.84,2.84-1.72,5.5-2.64,7.98s-1.92,4.89-3,7.22c-.39.84-.79,1.55-1.18,2.14s-.82,1.07-1.29,1.46c-.47.38-1,.66-1.58.84-.59.18-1.28.27-2.06.27-.65,0-1.26-.06-1.81-.18-.55-.12-1-.26-1.36-.41l.73-3.33c.43.15.81.25,1.15.31.34.06.69.08,1.06.08.75,0,1.32-.2,1.72-.6.4-.4.74-.96,1.02-1.67-.95-1.87-1.91-3.96-2.86-6.29-.95-2.32-1.85-4.93-2.69-7.83h4.42c.19.73.41,1.52.66,2.37.25.85.52,1.71.8,2.58.28.87.57,1.71.86,2.53s.57,1.57.83,2.24c.24-.67.5-1.42.76-2.24.26-.82.52-1.67.77-2.53s.5-1.73.73-2.58c.23-.85.44-1.64.63-2.37h4.31Z"/>
        <path class="cls-6" d="m164.46,494.53c.34.62.72,1.38,1.17,2.28.44.91.9,1.89,1.38,2.94.48,1.05.95,2.13,1.42,3.23.47,1.1.91,2.14,1.32,3.11.41-.97.85-2.01,1.32-3.11.47-1.1.94-2.18,1.42-3.23.48-1.05.94-2.04,1.38-2.94s.83-1.67,1.17-2.28h3.98c.19,1.29.36,2.73.52,4.33s.3,3.26.42,4.98.23,3.46.34,5.19c.1,1.74.19,3.37.27,4.9h-4.26c-.06-1.88-.13-3.94-.22-6.16-.09-2.22-.23-4.46-.42-6.72-.34.78-.71,1.65-1.12,2.6-.41.95-.82,1.9-1.22,2.86-.4.95-.79,1.86-1.17,2.73-.37.87-.69,1.61-.96,2.23h-3.05c-.26-.62-.58-1.36-.96-2.23-.37-.87-.76-1.78-1.17-2.73-.4-.95-.81-1.9-1.22-2.86-.41-.95-.79-1.82-1.12-2.6-.19,2.26-.33,4.5-.42,6.72-.09,2.22-.17,4.28-.22,6.16h-4.26c.07-1.53.16-3.16.27-4.9.1-1.74.21-3.47.34-5.19.12-1.73.26-3.39.42-4.98.16-1.6.33-3.04.52-4.33h4.17Z"/>
        <path class="cls-6" d="m189.43,498.82c1.23,0,2.26.14,3.08.42.82.28,1.48.68,1.97,1.2.49.52.84,1.16,1.05,1.9.21.75.31,1.58.31,2.49v8.68c-.6.13-1.43.29-2.49.46s-2.35.27-3.86.27c-.95,0-1.82-.08-2.59-.25s-1.44-.44-2-.83-.99-.88-1.29-1.5c-.3-.62-.45-1.37-.45-2.27s.17-1.59.52-2.18c.35-.6.81-1.07,1.39-1.43.58-.35,1.24-.61,1.99-.77.75-.16,1.52-.24,2.32-.24.54,0,1.02.02,1.44.07.42.05.76.11,1.02.18v-.39c0-.71-.21-1.28-.64-1.71-.43-.43-1.18-.64-2.24-.64-.71,0-1.41.05-2.1.15s-1.29.25-1.79.43l-.53-3.36c.24-.07.55-.15.91-.24.36-.08.76-.16,1.19-.22.43-.07.88-.12,1.36-.17s.96-.07,1.44-.07Zm.34,12.21c.41,0,.8,0,1.18-.03.37-.02.67-.05.9-.08v-3.16c-.17-.04-.42-.07-.76-.11-.34-.04-.64-.06-.92-.06-.39,0-.76.02-1.11.07-.35.05-.65.14-.91.27-.26.13-.47.31-.62.53-.15.22-.22.5-.22.84,0,.65.22,1.11.66,1.36.44.25,1.04.38,1.81.38Z"/>
        <path class="cls-6" d="m199.62,499.71c.71-.21,1.62-.4,2.74-.57s2.3-.27,3.53-.27,2.29.16,3.12.49c.83.33,1.49.79,1.97,1.39.48.6.83,1.31,1.04,2.13s.31,1.74.31,2.74v8.32h-4.17v-7.81c0-1.34-.18-2.3-.53-2.86s-1.02-.84-1.99-.84c-.3,0-.62.01-.95.04-.34.03-.63.06-.9.1v11.37h-4.17v-14.22Z"/>
        <path class="cls-6" d="m221.41,498.82c1.23,0,2.26.14,3.08.42.82.28,1.48.68,1.97,1.2.49.52.84,1.16,1.05,1.9.21.75.31,1.58.31,2.49v8.68c-.6.13-1.43.29-2.49.46s-2.35.27-3.86.27c-.95,0-1.82-.08-2.59-.25s-1.44-.44-2-.83-.99-.88-1.29-1.5c-.3-.62-.45-1.37-.45-2.27s.17-1.59.52-2.18c.35-.6.81-1.07,1.39-1.43.58-.35,1.24-.61,1.99-.77.75-.16,1.52-.24,2.32-.24.54,0,1.02.02,1.44.07.42.05.76.11,1.02.18v-.39c0-.71-.21-1.28-.64-1.71-.43-.43-1.18-.64-2.24-.64-.71,0-1.41.05-2.1.15s-1.29.25-1.79.43l-.53-3.36c.24-.07.55-.15.91-.24.36-.08.76-.16,1.19-.22.43-.07.88-.12,1.36-.17s.96-.07,1.44-.07Zm.34,12.21c.41,0,.8,0,1.18-.03.37-.02.67-.05.9-.08v-3.16c-.17-.04-.42-.07-.76-.11-.34-.04-.64-.06-.92-.06-.39,0-.76.02-1.11.07-.35.05-.65.14-.91.27-.26.13-.47.31-.62.53-.15.22-.22.5-.22.84,0,.65.22,1.11.66,1.36.44.25,1.04.38,1.81.38Z"/>
        <path class="cls-6" d="m244.31,512.09c0,2.41-.61,4.2-1.83,5.36-1.22,1.17-3.11,1.75-5.67,1.75-.9,0-1.79-.08-2.69-.24-.9-.16-1.73-.37-2.49-.63l.73-3.5c.65.26,1.34.47,2.06.62.72.15,1.54.22,2.45.22,1.19,0,2.04-.26,2.53-.78.49-.52.74-1.19.74-2.02v-.53c-.45.21-.91.36-1.39.46-.48.1-.99.15-1.55.15-2.03,0-3.59-.6-4.68-1.81s-1.62-2.89-1.62-5.05c0-1.08.17-2.07.5-2.95s.83-1.65,1.47-2.28c.64-.63,1.43-1.12,2.37-1.47.93-.35,1.99-.52,3.16-.52.5,0,1.02.02,1.55.07.53.05,1.06.11,1.58.18.52.07,1.02.16,1.5.27s.9.21,1.27.32v12.38Zm-9.16-5.99c0,2.33.94,3.5,2.83,3.5.43,0,.83-.06,1.2-.17.37-.11.69-.24.95-.39v-6.66c-.21-.04-.45-.07-.73-.1s-.61-.04-.98-.04c-1.1,0-1.92.36-2.46,1.09-.54.73-.81,1.65-.81,2.77Z"/>
        <path class="cls-6" d="m247.53,506.69c0-1.31.2-2.45.6-3.43.4-.98.93-1.8,1.58-2.45s1.4-1.15,2.25-1.48c.85-.34,1.72-.5,2.62-.5,2.09,0,3.74.64,4.96,1.92,1.21,1.28,1.82,3.16,1.82,5.64,0,.24,0,.51-.03.8s-.04.55-.06.77h-9.46c.09.86.49,1.54,1.2,2.04.71.5,1.66.76,2.86.76.77,0,1.52-.07,2.25-.21.74-.14,1.34-.31,1.81-.52l.56,3.39c-.22.11-.52.22-.9.34-.37.11-.79.21-1.25.29-.46.08-.95.15-1.47.21-.52.06-1.05.08-1.57.08-1.33,0-2.48-.2-3.46-.59-.98-.39-1.79-.93-2.44-1.61s-1.12-1.49-1.43-2.42c-.31-.93-.46-1.94-.46-3.02Zm9.8-1.6c-.02-.35-.08-.7-.18-1.04s-.26-.63-.48-.9c-.21-.26-.49-.48-.81-.64s-.73-.25-1.22-.25-.87.08-1.2.24c-.34.16-.62.37-.84.63-.22.26-.4.56-.52.91-.12.35-.21.7-.27,1.05h5.52Z"/>
        <path class="cls-6" d="m272.67,506.13c0-1.34-.17-2.3-.52-2.86-.35-.56-.94-.84-1.78-.84-.26,0-.53.01-.81.04-.28.03-.55.06-.81.1v11.37h-4.17v-14.22c.35-.09.77-.19,1.25-.29s.98-.2,1.51-.28c.53-.08,1.08-.15,1.64-.2.56-.05,1.11-.07,1.65-.07,1.06,0,1.93.14,2.59.41.66.27,1.21.59,1.64.97.6-.43,1.28-.76,2.06-1.01.77-.24,1.49-.36,2.14-.36,1.18,0,2.14.16,2.9.49.76.33,1.36.79,1.81,1.39.45.6.76,1.31.92,2.13s.25,1.74.25,2.74v8.32h-4.17v-7.81c0-1.34-.17-2.3-.52-2.86-.35-.56-.94-.84-1.78-.84-.22,0-.54.06-.94.17-.4.11-.73.25-.99.42.13.43.21.88.25,1.36.04.48.06.98.06,1.53v8.04h-4.17v-7.81Z"/>
        <path class="cls-6" d="m288.02,506.69c0-1.31.2-2.45.6-3.43.4-.98.93-1.8,1.58-2.45s1.4-1.15,2.25-1.48c.85-.34,1.72-.5,2.62-.5,2.09,0,3.74.64,4.96,1.92,1.21,1.28,1.82,3.16,1.82,5.64,0,.24,0,.51-.03.8s-.04.55-.06.77h-9.46c.09.86.49,1.54,1.2,2.04.71.5,1.66.76,2.86.76.77,0,1.52-.07,2.25-.21.74-.14,1.34-.31,1.81-.52l.56,3.39c-.22.11-.52.22-.9.34-.37.11-.79.21-1.25.29-.46.08-.95.15-1.47.21-.52.06-1.05.08-1.57.08-1.33,0-2.48-.2-3.46-.59-.98-.39-1.79-.93-2.44-1.61s-1.12-1.49-1.43-2.42c-.31-.93-.46-1.94-.46-3.02Zm9.8-1.6c-.02-.35-.08-.7-.18-1.04s-.26-.63-.48-.9c-.21-.26-.49-.48-.81-.64s-.73-.25-1.22-.25-.87.08-1.2.24c-.34.16-.62.37-.84.63-.22.26-.4.56-.52.91-.12.35-.21.7-.27,1.05h5.52Z"/>
        <path class="cls-6" d="m305.07,499.71c.71-.21,1.62-.4,2.74-.57s2.3-.27,3.53-.27,2.29.16,3.12.49c.83.33,1.49.79,1.97,1.39.48.6.83,1.31,1.04,2.13s.31,1.74.31,2.74v8.32h-4.17v-7.81c0-1.34-.18-2.3-.53-2.86s-1.02-.84-1.99-.84c-.3,0-.62.01-.95.04-.34.03-.63.06-.9.1v11.37h-4.17v-14.22Z"/>
        <path class="cls-6" d="m321.42,495.54l4.17-.67v4.34h5.01v3.47h-5.01v5.18c0,.88.15,1.58.46,2.1s.93.78,1.86.78c.45,0,.91-.04,1.39-.13s.91-.2,1.3-.35l.59,3.25c-.5.21-1.06.38-1.68.53-.62.15-1.37.22-2.27.22-1.14,0-2.08-.15-2.83-.46s-1.34-.74-1.79-1.29c-.45-.55-.76-1.22-.94-2-.18-.78-.27-1.65-.27-2.6v-12.38Z"/>
      </g>
      <rect class="cls-7" x="779.63" y="52.52" width="349.44" height="88.13" rx="10.77" ry="10.77"/>
      <g>
        <path class="cls-6" d="m830.75,107.7c-1.06,0-2.12-.03-3.18-.1-1.05-.07-2.15-.22-3.29-.46v-18.82c.9-.17,1.88-.29,2.94-.38,1.06-.08,2.05-.13,2.97-.13,1.23,0,2.37.09,3.4.27s1.93.48,2.67.91c.75.43,1.33.99,1.75,1.69.42.7.63,1.56.63,2.59,0,1.55-.75,2.77-2.24,3.67,1.23.47,2.07,1.1,2.52,1.9.45.8.67,1.71.67,2.72,0,2.03-.74,3.57-2.23,4.59-1.48,1.03-3.69,1.54-6.62,1.54Zm-2.21-12.04h2.13c1.34,0,2.3-.17,2.88-.52.58-.35.87-.9.87-1.67s-.3-1.33-.9-1.65c-.6-.32-1.48-.48-2.63-.48-.37,0-.77,0-1.2.01-.43,0-.81.03-1.15.07v4.23Zm0,3.33v5.01c.32.04.66.07,1.04.08.37.02.78.03,1.23.03,1.31,0,2.36-.19,3.16-.56.8-.37,1.2-1.06,1.2-2.07,0-.9-.34-1.54-1.01-1.92-.67-.38-1.63-.57-2.88-.57h-2.74Z"/>
        <path class="cls-6" d="m855.39,106.95c-.71.21-1.62.4-2.74.57s-2.3.27-3.53.27-2.29-.17-3.12-.5c-.83-.34-1.49-.81-1.97-1.41-.49-.61-.83-1.33-1.04-2.17s-.31-1.76-.31-2.77v-8.2h4.17v7.7c0,1.34.18,2.31.53,2.91.35.6,1.02.9,1.99.9.3,0,.62-.01.95-.04.34-.03.63-.06.9-.1v-11.37h4.17v14.22Z"/>
        <path class="cls-6" d="m863.53,104.46c.76,0,1.31-.07,1.62-.22.32-.15.48-.44.48-.87,0-.34-.21-.63-.62-.88-.41-.25-1.04-.54-1.88-.85-.65-.24-1.25-.49-1.78-.76-.53-.26-.98-.57-1.36-.94-.37-.36-.66-.8-.87-1.3-.21-.5-.31-1.11-.31-1.82,0-1.38.51-2.47,1.54-3.28,1.03-.8,2.44-1.2,4.23-1.2.9,0,1.75.08,2.58.24s1.47.33,1.96.52l-.73,3.25c-.49-.17-1.01-.32-1.58-.45-.57-.13-1.21-.2-1.92-.2-1.31,0-1.96.36-1.96,1.09,0,.17.03.32.08.45.06.13.17.26.34.38.17.12.4.25.69.39.29.14.66.3,1.11.47.92.34,1.67.67,2.27,1,.6.33,1.07.69,1.41,1.07.34.38.59.81.73,1.27.14.47.21,1.01.21,1.62,0,1.45-.55,2.55-1.64,3.3s-2.64,1.12-4.63,1.12c-1.31,0-2.39-.11-3.26-.34-.87-.22-1.47-.41-1.81-.56l.7-3.39c.71.28,1.44.5,2.18.66.75.16,1.48.24,2.21.24Z"/>
        <path class="cls-6" d="m877.45,88.47c0,.77-.25,1.37-.74,1.81-.5.44-1.08.66-1.75.66s-1.26-.22-1.75-.66c-.5-.44-.74-1.04-.74-1.81s.25-1.37.74-1.81c.49-.44,1.08-.66,1.75-.66s1.25.22,1.75.66c.49.44.74,1.04.74,1.81Zm-.39,18.98h-4.17v-14.73h4.17v14.73Z"/>
        <path class="cls-6" d="m880.98,93.23c.71-.21,1.62-.4,2.74-.57s2.3-.27,3.53-.27,2.29.16,3.12.49c.83.33,1.49.79,1.97,1.39.49.6.83,1.31,1.04,2.13.21.82.31,1.74.31,2.74v8.32h-4.17v-7.81c0-1.34-.18-2.3-.53-2.86s-1.02-.84-1.99-.84c-.3,0-.62.01-.95.04-.34.03-.63.06-.9.1v11.37h-4.17v-14.22Z"/>
        <path class="cls-6" d="m896.77,100.2c0-1.31.2-2.45.6-3.43.4-.98.93-1.8,1.58-2.45.65-.65,1.4-1.15,2.25-1.48.85-.34,1.72-.5,2.62-.5,2.09,0,3.74.64,4.96,1.92,1.21,1.28,1.82,3.16,1.82,5.64,0,.24,0,.51-.03.8-.02.29-.04.55-.06.77h-9.46c.09.86.49,1.54,1.2,2.04.71.5,1.66.76,2.86.76.77,0,1.52-.07,2.25-.21.74-.14,1.34-.31,1.81-.52l.56,3.39c-.22.11-.52.22-.9.34-.37.11-.79.21-1.25.29-.46.08-.95.15-1.47.21-.52.06-1.05.08-1.57.08-1.33,0-2.48-.2-3.46-.59-.98-.39-1.79-.93-2.44-1.61-.64-.68-1.12-1.49-1.43-2.42-.31-.93-.46-1.94-.46-3.02Zm9.8-1.6c-.02-.35-.08-.7-.18-1.04-.1-.34-.26-.63-.48-.9-.21-.26-.49-.48-.81-.64s-.73-.25-1.22-.25-.87.08-1.2.24c-.34.16-.62.37-.84.63-.22.26-.4.56-.52.91-.12.35-.21.7-.27,1.05h5.52Z"/>
        <path class="cls-6" d="m918.05,104.46c.76,0,1.31-.07,1.62-.22.32-.15.48-.44.48-.87,0-.34-.21-.63-.62-.88-.41-.25-1.04-.54-1.88-.85-.65-.24-1.25-.49-1.78-.76-.53-.26-.98-.57-1.36-.94-.37-.36-.66-.8-.87-1.3-.21-.5-.31-1.11-.31-1.82,0-1.38.51-2.47,1.54-3.28,1.03-.8,2.44-1.2,4.23-1.2.9,0,1.75.08,2.58.24s1.47.33,1.96.52l-.73,3.25c-.49-.17-1.01-.32-1.58-.45-.57-.13-1.21-.2-1.92-.2-1.31,0-1.96.36-1.96,1.09,0,.17.03.32.08.45.06.13.17.26.34.38.17.12.4.25.69.39.29.14.66.3,1.11.47.92.34,1.67.67,2.27,1,.6.33,1.07.69,1.41,1.07.34.38.59.81.73,1.27.14.47.21,1.01.21,1.62,0,1.45-.55,2.55-1.64,3.3s-2.64,1.12-4.63,1.12c-1.31,0-2.39-.11-3.26-.34-.87-.22-1.47-.41-1.81-.56l.7-3.39c.71.28,1.44.5,2.18.66.75.16,1.48.24,2.21.24Z"/>
        <path class="cls-6" d="m931.63,104.46c.76,0,1.31-.07,1.62-.22.32-.15.48-.44.48-.87,0-.34-.21-.63-.62-.88-.41-.25-1.04-.54-1.88-.85-.65-.24-1.25-.49-1.78-.76-.53-.26-.98-.57-1.36-.94-.37-.36-.66-.8-.87-1.3-.21-.5-.31-1.11-.31-1.82,0-1.38.51-2.47,1.54-3.28,1.03-.8,2.44-1.2,4.23-1.2.9,0,1.75.08,2.58.24s1.47.33,1.96.52l-.73,3.25c-.49-.17-1.01-.32-1.58-.45-.57-.13-1.21-.2-1.92-.2-1.31,0-1.96.36-1.96,1.09,0,.17.03.32.08.45.06.13.17.26.34.38.17.12.4.25.69.39.29.14.66.3,1.11.47.92.34,1.67.67,2.27,1,.6.33,1.07.69,1.41,1.07.34.38.59.81.73,1.27.14.47.21,1.01.21,1.62,0,1.45-.55,2.55-1.64,3.3s-2.64,1.12-4.63,1.12c-1.31,0-2.39-.11-3.26-.34-.87-.22-1.47-.41-1.81-.56l.7-3.39c.71.28,1.44.5,2.18.66.75.16,1.48.24,2.21.24Z"/>
        <path class="cls-6" d="m956.83,107.84c-3.15,0-5.56-.88-7.21-2.63-1.65-1.75-2.48-4.25-2.48-7.48,0-1.61.25-3.04.76-4.3.5-1.26,1.19-2.32,2.07-3.19.88-.87,1.92-1.53,3.14-1.97,1.21-.45,2.53-.67,3.95-.67.82,0,1.57.06,2.24.18.67.12,1.26.26,1.76.42.5.16.92.32,1.26.49.34.17.58.3.73.39l-1.26,3.53c-.6-.32-1.29-.59-2.09-.81-.79-.22-1.69-.34-2.7-.34-.67,0-1.33.11-1.97.34-.64.22-1.21.58-1.71,1.08s-.89,1.13-1.19,1.92c-.3.78-.45,1.74-.45,2.86,0,.9.1,1.73.29,2.51.2.77.51,1.44.95,2s1.01,1,1.72,1.33c.71.33,1.57.49,2.58.49.63,0,1.2-.04,1.71-.11.5-.07.95-.16,1.34-.27.39-.1.74-.22,1.04-.35.3-.13.57-.25.81-.36l1.2,3.5c-.62.37-1.48.71-2.6,1.01-1.12.3-2.42.45-3.89.45Z"/>
        <path class="cls-6" d="m979.29,100.06c0,1.16-.17,2.22-.5,3.18s-.82,1.78-1.46,2.46c-.63.68-1.4,1.21-2.28,1.58s-1.88.56-2.98.56-2.07-.19-2.95-.56-1.65-.9-2.28-1.58c-.63-.68-1.13-1.5-1.48-2.46s-.53-2.02-.53-3.18.18-2.21.55-3.16c.36-.95.87-1.76,1.51-2.44.64-.67,1.41-1.19,2.3-1.57.89-.37,1.85-.56,2.9-.56s2.04.19,2.93.56c.89.37,1.65.9,2.28,1.57.63.67,1.13,1.48,1.48,2.44.35.95.53,2.01.53,3.16Zm-4.26,0c0-1.29-.26-2.3-.77-3.04-.51-.74-1.25-1.11-2.2-1.11s-1.69.37-2.21,1.11c-.52.74-.78,1.75-.78,3.04s.26,2.31.78,3.07c.52.76,1.26,1.13,2.21,1.13s1.68-.38,2.2-1.13c.51-.76.77-1.78.77-3.07Z"/>
        <path class="cls-6" d="m982.5,93.23c.71-.21,1.62-.4,2.74-.57s2.3-.27,3.53-.27,2.29.16,3.12.49c.83.33,1.49.79,1.97,1.39.49.6.83,1.31,1.04,2.13.21.82.31,1.74.31,2.74v8.32h-4.17v-7.81c0-1.34-.18-2.3-.53-2.86s-1.02-.84-1.99-.84c-.3,0-.62.01-.95.04-.34.03-.63.06-.9.1v11.37h-4.17v-14.22Z"/>
        <path class="cls-6" d="m998.86,89.06l4.17-.67v4.34h5.01v3.47h-5.01v5.18c0,.88.15,1.58.46,2.1.31.52.93.78,1.86.78.45,0,.91-.04,1.39-.13.48-.08.91-.2,1.3-.35l.59,3.25c-.5.21-1.06.38-1.68.53-.62.15-1.37.22-2.27.22-1.14,0-2.08-.15-2.83-.46-.75-.31-1.34-.74-1.79-1.29-.45-.55-.76-1.22-.94-2s-.27-1.65-.27-2.6v-12.38Z"/>
        <path class="cls-6" d="m1015.99,88.47c0,.77-.25,1.37-.74,1.81-.5.44-1.08.66-1.75.66s-1.26-.22-1.75-.66c-.5-.44-.74-1.04-.74-1.81s.25-1.37.74-1.81c.49-.44,1.08-.66,1.75-.66s1.25.22,1.75.66c.49.44.74,1.04.74,1.81Zm-.39,18.98h-4.17v-14.73h4.17v14.73Z"/>
        <path class="cls-6" d="m1019.52,93.23c.71-.21,1.62-.4,2.74-.57s2.3-.27,3.53-.27,2.29.16,3.12.49c.83.33,1.49.79,1.97,1.39.49.6.83,1.31,1.04,2.13.21.82.31,1.74.31,2.74v8.32h-4.17v-7.81c0-1.34-.18-2.3-.53-2.86s-1.02-.84-1.99-.84c-.3,0-.62.01-.95.04-.34.03-.63.06-.9.1v11.37h-4.17v-14.22Z"/>
        <path class="cls-6" d="m1048.58,106.95c-.71.21-1.62.4-2.74.57s-2.3.27-3.53.27-2.29-.17-3.12-.5c-.83-.34-1.49-.81-1.97-1.41-.49-.61-.83-1.33-1.04-2.17s-.31-1.76-.31-2.77v-8.2h4.17v7.7c0,1.34.18,2.31.53,2.91.35.6,1.02.9,1.99.9.3,0,.62-.01.95-.04.34-.03.63-.06.9-.1v-11.37h4.17v14.22Z"/>
        <path class="cls-6" d="m1057.07,88.47c0,.77-.25,1.37-.74,1.81-.5.44-1.08.66-1.75.66s-1.26-.22-1.75-.66c-.5-.44-.74-1.04-.74-1.81s.25-1.37.74-1.81c.49-.44,1.08-.66,1.75-.66s1.25.22,1.75.66c.49.44.74,1.04.74,1.81Zm-.39,18.98h-4.17v-14.73h4.17v14.73Z"/>
        <path class="cls-6" d="m1060.46,89.06l4.17-.67v4.34h5.01v3.47h-5.01v5.18c0,.88.15,1.58.46,2.1.31.52.93.78,1.86.78.45,0,.91-.04,1.39-.13.48-.08.91-.2,1.3-.35l.59,3.25c-.5.21-1.06.38-1.68.53-.62.15-1.37.22-2.27.22-1.14,0-2.08-.15-2.83-.46-.75-.31-1.34-.74-1.79-1.29-.45-.55-.76-1.22-.94-2s-.27-1.65-.27-2.6v-12.38Z"/>
        <path class="cls-6" d="m1086.41,92.72c-.84,2.84-1.72,5.5-2.64,7.98-.92,2.48-1.92,4.89-3,7.22-.39.84-.79,1.55-1.18,2.14-.39.59-.82,1.07-1.29,1.46-.47.38-1,.66-1.58.84-.59.18-1.28.27-2.06.27-.65,0-1.26-.06-1.81-.18-.55-.12-1-.26-1.36-.41l.73-3.33c.43.15.81.25,1.15.31.34.06.69.08,1.06.08.75,0,1.32-.2,1.72-.6s.74-.96,1.02-1.67c-.95-1.87-1.91-3.96-2.86-6.29-.95-2.32-1.85-4.93-2.69-7.83h4.42c.19.73.41,1.52.66,2.37.25.85.52,1.71.8,2.58.28.87.57,1.71.86,2.53.29.82.57,1.57.83,2.24.24-.67.5-1.42.76-2.24.26-.82.52-1.67.77-2.53.25-.87.5-1.73.73-2.58s.45-1.64.63-2.37h4.31Z"/>
      </g>
      <rect class="cls-7" x="779.63" y="185.6" width="349.44" height="88.13" rx="10.77" ry="10.77"/>
      <g>
        <path class="cls-6" d="m848.65,240.52v-19.4h12.99v3.67h-8.62v4.06h7.67v3.67h-7.67v8.01h-4.37Z"/>
        <path class="cls-6" d="m872.76,229.49c-.37-.09-.81-.19-1.32-.29-.5-.1-1.04-.15-1.62-.15-.26,0-.57.02-.94.07-.36.05-.64.1-.83.15v11.26h-4.17v-13.94c.75-.26,1.63-.51,2.65-.74,1.02-.23,2.15-.35,3.4-.35.22,0,.49.01.81.04.32.03.63.07.95.11.32.05.63.1.95.17s.59.14.81.24l-.7,3.44Z"/>
        <path class="cls-6" d="m880.71,225.4c1.23,0,2.26.14,3.08.42.82.28,1.48.68,1.97,1.2.5.52.84,1.16,1.05,1.9.21.75.31,1.58.31,2.49v8.68c-.6.13-1.43.28-2.49.46-1.06.18-2.35.27-3.86.27-.95,0-1.82-.08-2.59-.25s-1.44-.44-2-.83c-.56-.38-.99-.88-1.29-1.5-.3-.62-.45-1.37-.45-2.27s.17-1.59.52-2.18c.34-.6.81-1.07,1.39-1.43.58-.35,1.24-.61,1.99-.77.75-.16,1.52-.24,2.32-.24.54,0,1.02.02,1.44.07.42.05.76.11,1.02.18v-.39c0-.71-.21-1.28-.64-1.71-.43-.43-1.18-.64-2.24-.64-.71,0-1.41.05-2.1.15-.69.1-1.29.25-1.79.43l-.53-3.36c.24-.07.55-.15.91-.24.36-.08.76-.16,1.19-.22.43-.07.88-.12,1.36-.17.48-.05.96-.07,1.44-.07Zm.34,12.21c.41,0,.8,0,1.18-.03s.67-.05.9-.08v-3.16c-.17-.04-.42-.07-.76-.11s-.64-.06-.92-.06c-.39,0-.76.02-1.11.07-.35.05-.65.14-.91.27-.26.13-.47.31-.62.53-.15.22-.22.5-.22.84,0,.65.22,1.11.66,1.36.44.25,1.04.38,1.81.38Z"/>
        <path class="cls-6" d="m903.47,240.02c-.71.21-1.62.4-2.74.57s-2.3.27-3.53.27-2.29-.17-3.12-.5c-.83-.34-1.49-.81-1.97-1.41-.49-.61-.83-1.33-1.04-2.17s-.31-1.76-.31-2.77v-8.2h4.17v7.7c0,1.34.18,2.31.53,2.91.35.6,1.02.9,1.99.9.3,0,.62-.01.95-.04.34-.03.63-.06.9-.1v-11.37h4.17v14.22Z"/>
        <path class="cls-6" d="m920.38,240.05c-.37.11-.8.22-1.29.32s-.99.19-1.53.27c-.53.07-1.07.14-1.62.18-.55.05-1.08.07-1.58.07-1.21,0-2.3-.18-3.25-.53-.95-.35-1.75-.86-2.41-1.53-.65-.66-1.15-1.47-1.5-2.41-.35-.94-.52-2-.52-3.18s.15-2.27.45-3.23c.3-.96.73-1.78,1.29-2.45.56-.67,1.25-1.19,2.06-1.54.81-.35,1.74-.53,2.79-.53.58,0,1.1.06,1.55.17.46.11.92.27,1.39.48v-6.66l4.17-.67v21.25Zm-9.44-7c0,1.29.29,2.32.87,3.11.58.78,1.44,1.18,2.58,1.18.37,0,.72-.01,1.04-.04.32-.03.58-.06.78-.1v-7.59c-.26-.17-.6-.31-1.02-.42-.42-.11-.84-.17-1.27-.17-1.98,0-2.97,1.34-2.97,4.03Z"/>
        <path class="cls-6" d="m948.3,230.81c0,1.68-.26,3.15-.78,4.4-.52,1.25-1.26,2.29-2.23,3.11-.96.82-2.13,1.44-3.51,1.85-1.38.41-2.93.62-4.65.62-.78,0-1.7-.03-2.74-.1-1.05-.07-2.07-.2-3.08-.41v-18.9c1.01-.19,2.06-.31,3.15-.38,1.09-.07,2.03-.1,2.81-.1,1.66,0,3.17.19,4.52.56s2.52.96,3.49,1.76c.97.8,1.72,1.83,2.24,3.08.52,1.25.78,2.75.78,4.51Zm-12.63,6.16c.21.02.44.03.71.04.27,0,.59.01.97.01,2.18,0,3.8-.55,4.86-1.65,1.05-1.1,1.58-2.62,1.58-4.56s-.5-3.57-1.51-4.62-2.6-1.57-4.79-1.57c-.3,0-.61,0-.92.01-.32,0-.62.03-.9.07v12.26Z"/>
        <path class="cls-6" d="m950.96,233.27c0-1.31.2-2.45.6-3.43.4-.98.93-1.8,1.58-2.45.65-.65,1.4-1.15,2.25-1.48.85-.34,1.72-.5,2.62-.5,2.09,0,3.74.64,4.96,1.92,1.21,1.28,1.82,3.16,1.82,5.64,0,.24,0,.51-.03.8-.02.29-.04.55-.06.77h-9.46c.09.86.49,1.54,1.2,2.04.71.5,1.66.76,2.86.76.77,0,1.52-.07,2.25-.21.74-.14,1.34-.31,1.81-.52l.56,3.39c-.22.11-.52.22-.9.34-.37.11-.79.21-1.25.29-.46.08-.95.15-1.47.21-.52.06-1.05.08-1.57.08-1.33,0-2.48-.2-3.46-.59-.98-.39-1.79-.93-2.44-1.61-.64-.68-1.12-1.49-1.43-2.42-.31-.93-.46-1.94-.46-3.02Zm9.8-1.6c-.02-.35-.08-.7-.18-1.04-.1-.34-.26-.63-.48-.9-.21-.26-.49-.48-.81-.64s-.73-.25-1.22-.25-.87.08-1.2.24c-.34.16-.62.37-.84.63-.22.26-.4.56-.52.91-.12.35-.21.7-.27,1.05h5.52Z"/>
        <path class="cls-6" d="m967.87,222.13l4.17-.67v4.34h5.01v3.47h-5.01v5.18c0,.88.15,1.58.46,2.1.31.52.93.78,1.86.78.45,0,.91-.04,1.39-.13.48-.08.91-.2,1.3-.35l.59,3.25c-.5.21-1.06.38-1.68.53-.62.15-1.37.22-2.27.22-1.14,0-2.08-.15-2.83-.46-.75-.31-1.34-.74-1.79-1.29-.45-.55-.76-1.22-.94-2s-.27-1.65-.27-2.6v-12.38Z"/>
        <path class="cls-6" d="m979.18,233.27c0-1.31.2-2.45.6-3.43.4-.98.93-1.8,1.58-2.45.65-.65,1.4-1.15,2.25-1.48.85-.34,1.72-.5,2.62-.5,2.09,0,3.74.64,4.96,1.92,1.21,1.28,1.82,3.16,1.82,5.64,0,.24,0,.51-.03.8-.02.29-.04.55-.06.77h-9.46c.09.86.49,1.54,1.2,2.04.71.5,1.66.76,2.86.76.77,0,1.52-.07,2.25-.21.74-.14,1.34-.31,1.81-.52l.56,3.39c-.22.11-.52.22-.9.34-.37.11-.79.21-1.25.29-.46.08-.95.15-1.47.21-.52.06-1.05.08-1.57.08-1.33,0-2.48-.2-3.46-.59-.98-.39-1.79-.93-2.44-1.61-.64-.68-1.12-1.49-1.43-2.42-.31-.93-.46-1.94-.46-3.02Zm9.8-1.6c-.02-.35-.08-.7-.18-1.04-.1-.34-.26-.63-.48-.9-.21-.26-.49-.48-.81-.64s-.73-.25-1.22-.25-.87.08-1.2.24c-.34.16-.62.37-.84.63-.22.26-.4.56-.52.91-.12.35-.21.7-.27,1.05h5.52Z"/>
        <path class="cls-6" d="m995.53,233.16c0-1.06.17-2.07.52-3.01.34-.94.84-1.76,1.5-2.46.65-.7,1.45-1.26,2.38-1.67.93-.41,2-.62,3.19-.62.78,0,1.5.07,2.16.21.65.14,1.29.34,1.9.6l-.87,3.33c-.39-.15-.82-.28-1.29-.39-.47-.11-.99-.17-1.57-.17-1.23,0-2.15.38-2.76,1.15-.61.77-.91,1.77-.91,3.02,0,1.33.29,2.35.85,3.08s1.56,1.09,2.98,1.09c.5,0,1.05-.05,1.62-.14.58-.09,1.11-.24,1.6-.45l.59,3.42c-.49.21-1.09.38-1.82.53-.73.15-1.53.22-2.41.22-1.34,0-2.5-.2-3.47-.6s-1.77-.95-2.39-1.64c-.63-.69-1.08-1.51-1.37-2.45-.29-.94-.43-1.96-.43-3.07Z"/>
        <path class="cls-6" d="m1010.09,222.13l4.17-.67v4.34h5.01v3.47h-5.01v5.18c0,.88.15,1.58.46,2.1.31.52.93.78,1.86.78.45,0,.91-.04,1.39-.13.48-.08.91-.2,1.3-.35l.59,3.25c-.5.21-1.06.38-1.68.53-.62.15-1.37.22-2.27.22-1.14,0-2.08-.15-2.83-.46-.75-.31-1.34-.74-1.79-1.29-.45-.55-.76-1.22-.94-2s-.27-1.65-.27-2.6v-12.38Z"/>
        <path class="cls-6" d="m1027.23,221.54c0,.77-.25,1.37-.74,1.81-.5.44-1.08.66-1.75.66s-1.26-.22-1.75-.66c-.5-.44-.74-1.04-.74-1.81s.25-1.37.74-1.81c.49-.44,1.08-.66,1.75-.66s1.25.22,1.75.66c.49.44.74,1.04.74,1.81Zm-.39,18.98h-4.17v-14.73h4.17v14.73Z"/>
        <path class="cls-6" d="m1044.53,233.13c0,1.16-.17,2.22-.5,3.18s-.82,1.78-1.46,2.46c-.63.68-1.4,1.21-2.28,1.58s-1.88.56-2.98.56-2.07-.19-2.95-.56-1.65-.9-2.28-1.58c-.63-.68-1.13-1.5-1.48-2.46s-.53-2.02-.53-3.18.18-2.21.55-3.16c.36-.95.87-1.76,1.51-2.44.64-.67,1.41-1.19,2.3-1.57.89-.37,1.85-.56,2.9-.56s2.04.19,2.93.56c.89.37,1.65.9,2.28,1.57.63.67,1.13,1.48,1.48,2.44.35.95.53,2.01.53,3.16Zm-4.26,0c0-1.29-.26-2.3-.77-3.04-.51-.74-1.25-1.11-2.2-1.11s-1.69.37-2.21,1.11c-.52.74-.78,1.75-.78,3.04s.26,2.31.78,3.07c.52.76,1.26,1.13,2.21,1.13s1.68-.38,2.2-1.13c.51-.76.77-1.78.77-3.07Z"/>
        <path class="cls-6" d="m1047.75,226.3c.71-.21,1.62-.4,2.74-.57s2.3-.27,3.53-.27,2.29.16,3.12.49c.83.33,1.49.79,1.97,1.39.49.6.83,1.31,1.04,2.13.21.82.31,1.74.31,2.74v8.32h-4.17v-7.81c0-1.34-.18-2.3-.53-2.86s-1.02-.84-1.99-.84c-.3,0-.62.01-.95.04-.34.03-.63.06-.9.1v11.37h-4.17v-14.22Z"/>
      </g>
      <rect class="cls-7" x="779.63" y="325.94" width="349.44" height="88.13" rx="10.77" ry="10.77"/>
      <g>
        <path class="cls-6" d="m852.72,371.15c0,1.68-.26,3.15-.78,4.4-.52,1.25-1.26,2.29-2.23,3.11-.96.82-2.13,1.44-3.51,1.85-1.38.41-2.93.62-4.65.62-.78,0-1.7-.03-2.74-.1-1.05-.07-2.07-.2-3.08-.41v-18.9c1.01-.19,2.06-.31,3.15-.38,1.09-.06,2.03-.1,2.81-.1,1.66,0,3.17.19,4.52.56,1.35.37,2.52.96,3.49,1.76s1.72,1.83,2.24,3.08c.52,1.25.78,2.75.78,4.51Zm-12.63,6.16c.21.02.44.03.71.04.27,0,.59.01.97.01,2.18,0,3.8-.55,4.86-1.65,1.05-1.1,1.58-2.62,1.58-4.56s-.5-3.57-1.51-4.62c-1.01-1.04-2.6-1.57-4.79-1.57-.3,0-.61,0-.92.01-.32,0-.62.03-.9.07v12.26Z"/>
        <path class="cls-6" d="m860.65,361.88c0,.77-.25,1.37-.74,1.81-.5.44-1.08.66-1.75.66s-1.26-.22-1.75-.66c-.5-.44-.74-1.04-.74-1.81s.25-1.37.74-1.81c.49-.44,1.08-.66,1.75-.66s1.25.22,1.75.66c.49.44.74,1.04.74,1.81Zm-.39,18.98h-4.17v-14.73h4.17v14.73Z"/>
        <path class="cls-6" d="m868.4,377.87c.76,0,1.31-.07,1.62-.22s.48-.44.48-.87c0-.34-.21-.63-.62-.88-.41-.25-1.04-.54-1.88-.85-.65-.24-1.25-.49-1.78-.76-.53-.26-.98-.57-1.36-.94-.37-.36-.66-.8-.87-1.3-.21-.5-.31-1.11-.31-1.82,0-1.38.51-2.47,1.54-3.28,1.03-.8,2.44-1.2,4.23-1.2.9,0,1.75.08,2.58.24s1.47.33,1.96.52l-.73,3.25c-.49-.17-1.01-.32-1.58-.45-.57-.13-1.21-.2-1.92-.2-1.31,0-1.96.36-1.96,1.09,0,.17.03.32.08.45.06.13.17.26.34.38.17.12.4.25.69.39.29.14.66.3,1.11.47.92.34,1.67.67,2.27,1,.6.33,1.07.69,1.41,1.07.34.38.59.81.73,1.27.14.47.21,1.01.21,1.62,0,1.45-.55,2.55-1.64,3.3s-2.64,1.12-4.63,1.12c-1.31,0-2.39-.11-3.26-.34-.87-.22-1.47-.41-1.81-.56l.7-3.39c.71.28,1.44.5,2.18.66.75.16,1.48.24,2.21.24Z"/>
        <path class="cls-6" d="m883.05,365.74c1.23,0,2.26.14,3.08.42s1.48.68,1.97,1.2c.5.52.84,1.16,1.05,1.9.21.75.31,1.58.31,2.49v8.68c-.6.13-1.43.29-2.49.46-1.06.18-2.35.27-3.86.27-.95,0-1.82-.08-2.59-.25s-1.44-.44-2-.83c-.56-.38-.99-.88-1.29-1.5-.3-.62-.45-1.37-.45-2.27s.17-1.59.52-2.18c.34-.6.81-1.07,1.39-1.43.58-.35,1.24-.61,1.99-.77.75-.16,1.52-.24,2.32-.24.54,0,1.02.02,1.44.07s.76.11,1.02.18v-.39c0-.71-.21-1.28-.64-1.71s-1.18-.64-2.24-.64c-.71,0-1.41.05-2.1.15s-1.29.25-1.79.43l-.53-3.36c.24-.07.55-.15.91-.24.36-.08.76-.16,1.19-.22.43-.07.88-.12,1.36-.17.48-.05.96-.07,1.44-.07Zm.34,12.21c.41,0,.8,0,1.18-.03.37-.02.67-.05.9-.08v-3.16c-.17-.04-.42-.07-.76-.11s-.64-.06-.92-.06c-.39,0-.76.02-1.11.07-.35.05-.65.14-.91.27-.26.13-.47.31-.62.53-.15.22-.22.5-.22.84,0,.65.22,1.11.66,1.36.44.25,1.04.38,1.81.38Z"/>
        <path class="cls-6" d="m897.47,377.87c.76,0,1.31-.07,1.62-.22s.48-.44.48-.87c0-.34-.21-.63-.62-.88-.41-.25-1.04-.54-1.88-.85-.65-.24-1.25-.49-1.78-.76-.53-.26-.98-.57-1.36-.94-.37-.36-.66-.8-.87-1.3-.21-.5-.31-1.11-.31-1.82,0-1.38.51-2.47,1.54-3.28,1.03-.8,2.44-1.2,4.23-1.2.9,0,1.75.08,2.58.24s1.47.33,1.96.52l-.73,3.25c-.49-.17-1.01-.32-1.58-.45-.57-.13-1.21-.2-1.92-.2-1.31,0-1.96.36-1.96,1.09,0,.17.03.32.08.45.06.13.17.26.34.38.17.12.4.25.69.39.29.14.66.3,1.11.47.92.34,1.67.67,2.27,1,.6.33,1.07.69,1.41,1.07.34.38.59.81.73,1.27.14.47.21,1.01.21,1.62,0,1.45-.55,2.55-1.64,3.3s-2.64,1.12-4.63,1.12c-1.31,0-2.39-.11-3.26-.34-.87-.22-1.47-.41-1.81-.56l.7-3.39c.71.28,1.44.5,2.18.66.75.16,1.48.24,2.21.24Z"/>
        <path class="cls-6" d="m906.68,362.47l4.17-.67v4.34h5.01v3.47h-5.01v5.18c0,.88.15,1.58.46,2.1s.93.78,1.86.78c.45,0,.91-.04,1.39-.13.48-.08.91-.2,1.3-.35l.59,3.25c-.5.21-1.06.38-1.68.53-.62.15-1.37.22-2.27.22-1.14,0-2.08-.15-2.83-.46-.75-.31-1.34-.74-1.79-1.29-.45-.55-.76-1.22-.94-2s-.27-1.65-.27-2.6v-12.38Z"/>
        <path class="cls-6" d="m917.99,373.61c0-1.31.2-2.45.6-3.43.4-.98.93-1.8,1.58-2.45.65-.65,1.4-1.15,2.25-1.48.85-.34,1.72-.5,2.62-.5,2.09,0,3.74.64,4.96,1.92,1.21,1.28,1.82,3.16,1.82,5.64,0,.24,0,.51-.03.8-.02.29-.04.55-.06.77h-9.46c.09.86.49,1.54,1.2,2.04.71.5,1.66.76,2.86.76.77,0,1.52-.07,2.25-.21.74-.14,1.34-.31,1.81-.52l.56,3.39c-.22.11-.52.22-.9.34-.37.11-.79.21-1.25.29-.46.08-.95.15-1.47.21-.52.06-1.05.08-1.57.08-1.33,0-2.48-.2-3.46-.59-.98-.39-1.79-.93-2.44-1.61-.64-.68-1.12-1.49-1.43-2.42-.31-.93-.46-1.94-.46-3.02Zm9.8-1.6c-.02-.35-.08-.7-.18-1.04s-.26-.63-.48-.9c-.21-.26-.49-.48-.81-.64s-.73-.25-1.22-.25-.87.08-1.2.24c-.34.16-.62.37-.84.63-.22.26-.4.56-.52.91-.12.35-.21.7-.27,1.05h5.52Z"/>
        <path class="cls-6" d="m943.92,369.83c-.37-.09-.81-.19-1.32-.29-.5-.1-1.04-.15-1.62-.15-.26,0-.57.02-.94.07-.36.05-.64.1-.83.15v11.26h-4.17v-13.94c.75-.26,1.63-.51,2.65-.74,1.02-.23,2.15-.35,3.4-.35.22,0,.49.01.81.04.32.03.63.07.95.11.32.05.63.1.95.17s.59.14.81.24l-.7,3.44Z"/>
        <path class="cls-6" d="m959.54,361.24c2.91,0,5.14.52,6.69,1.55,1.55,1.04,2.32,2.65,2.32,4.83,0,1.36-.31,2.47-.94,3.32-.63.85-1.53,1.52-2.7,2,.39.49.8,1.04,1.23,1.67.43.62.85,1.28,1.27,1.96s.83,1.39,1.22,2.13c.39.74.76,1.46,1.09,2.17h-4.88c-.36-.63-.72-1.28-1.08-1.93s-.74-1.29-1.12-1.9c-.38-.62-.76-1.2-1.14-1.75-.38-.55-.75-1.05-1.12-1.5h-2.16v7.08h-4.37v-19.12c.95-.19,1.94-.32,2.95-.39,1.02-.08,1.93-.11,2.73-.11Zm.25,3.72c-.32,0-.6,0-.85.03s-.49.04-.71.06v5.26h1.23c1.64,0,2.82-.21,3.53-.62.71-.41,1.06-1.11,1.06-2.1s-.36-1.63-1.08-2.03-1.78-.6-3.18-.6Z"/>
        <path class="cls-6" d="m970.85,373.61c0-1.31.2-2.45.6-3.43.4-.98.93-1.8,1.58-2.45.65-.65,1.4-1.15,2.25-1.48.85-.34,1.72-.5,2.62-.5,2.09,0,3.74.64,4.96,1.92,1.21,1.28,1.82,3.16,1.82,5.64,0,.24,0,.51-.03.8-.02.29-.04.55-.06.77h-9.46c.09.86.49,1.54,1.2,2.04.71.5,1.66.76,2.86.76.77,0,1.52-.07,2.25-.21.74-.14,1.34-.31,1.81-.52l.56,3.39c-.22.11-.52.22-.9.34-.37.11-.79.21-1.25.29-.46.08-.95.15-1.47.21-.52.06-1.05.08-1.57.08-1.33,0-2.48-.2-3.46-.59-.98-.39-1.79-.93-2.44-1.61-.64-.68-1.12-1.49-1.43-2.42-.31-.93-.46-1.94-.46-3.02Zm9.8-1.6c-.02-.35-.08-.7-.18-1.04s-.26-.63-.48-.9c-.21-.26-.49-.48-.81-.64s-.73-.25-1.22-.25-.87.08-1.2.24c-.34.16-.62.37-.84.63-.22.26-.4.56-.52.91-.12.35-.21.7-.27,1.05h5.52Z"/>
        <path class="cls-6" d="m987.2,373.5c0-1.06.17-2.07.52-3.01.34-.94.84-1.76,1.5-2.46.65-.7,1.45-1.25,2.38-1.67.93-.41,2-.62,3.19-.62.78,0,1.5.07,2.16.21.65.14,1.29.34,1.9.6l-.87,3.33c-.39-.15-.82-.28-1.29-.39s-.99-.17-1.57-.17c-1.23,0-2.15.38-2.76,1.15s-.91,1.77-.91,3.02c0,1.33.29,2.35.85,3.08.57.73,1.56,1.09,2.98,1.09.5,0,1.05-.05,1.62-.14.58-.09,1.11-.24,1.6-.45l.59,3.42c-.49.21-1.09.38-1.82.53-.73.15-1.53.22-2.41.22-1.34,0-2.5-.2-3.47-.6s-1.77-.95-2.39-1.64c-.63-.69-1.08-1.51-1.37-2.45-.29-.94-.43-1.96-.43-3.07Z"/>
        <path class="cls-6" d="m1014.98,373.47c0,1.16-.17,2.22-.5,3.18-.34.96-.82,1.78-1.46,2.46-.63.68-1.4,1.21-2.28,1.58s-1.88.56-2.98.56-2.07-.19-2.95-.56-1.65-.9-2.28-1.58c-.63-.68-1.13-1.5-1.48-2.46-.35-.96-.53-2.02-.53-3.18s.18-2.21.55-3.16c.36-.95.87-1.76,1.51-2.44.64-.67,1.41-1.19,2.3-1.57.89-.37,1.85-.56,2.9-.56s2.04.19,2.93.56c.89.37,1.65.9,2.28,1.57s1.13,1.48,1.48,2.44.53,2.01.53,3.16Zm-4.26,0c0-1.29-.26-2.3-.77-3.04s-1.25-1.11-2.2-1.11-1.69.37-2.21,1.11-.78,1.75-.78,3.04.26,2.31.78,3.07,1.26,1.13,2.21,1.13,1.68-.38,2.2-1.13.77-1.78.77-3.07Z"/>
        <path class="cls-6" d="m1021.83,380.86c-.96-1.87-1.93-4.05-2.91-6.55s-1.92-5.23-2.8-8.18h4.42c.19.73.41,1.52.66,2.37.25.85.52,1.71.79,2.58s.54,1.71.82,2.53c.27.82.54,1.57.8,2.24.24-.67.51-1.42.79-2.24s.56-1.67.83-2.53.53-1.73.79-2.58c.25-.85.47-1.64.66-2.37h4.32c-.88,2.95-1.81,5.67-2.79,8.18s-1.95,4.69-2.91,6.55h-3.46Z"/>
        <path class="cls-6" d="m1032.12,373.61c0-1.31.2-2.45.6-3.43.4-.98.93-1.8,1.58-2.45.65-.65,1.4-1.15,2.25-1.48.85-.34,1.72-.5,2.62-.5,2.09,0,3.74.64,4.96,1.92,1.21,1.28,1.82,3.16,1.82,5.64,0,.24,0,.51-.03.8-.02.29-.04.55-.06.77h-9.46c.09.86.49,1.54,1.2,2.04.71.5,1.66.76,2.86.76.77,0,1.52-.07,2.25-.21.74-.14,1.34-.31,1.81-.52l.56,3.39c-.22.11-.52.22-.9.34-.37.11-.79.21-1.25.29-.46.08-.95.15-1.47.21-.52.06-1.05.08-1.57.08-1.33,0-2.48-.2-3.46-.59-.98-.39-1.79-.93-2.44-1.61-.64-.68-1.12-1.49-1.43-2.42-.31-.93-.46-1.94-.46-3.02Zm9.8-1.6c-.02-.35-.08-.7-.18-1.04s-.26-.63-.48-.9c-.21-.26-.49-.48-.81-.64s-.73-.25-1.22-.25-.87.08-1.2.24c-.34.16-.62.37-.84.63-.22.26-.4.56-.52.91-.12.35-.21.7-.27,1.05h5.52Z"/>
        <path class="cls-6" d="m1058.04,369.83c-.37-.09-.81-.19-1.32-.29-.5-.1-1.04-.15-1.62-.15-.26,0-.57.02-.94.07-.36.05-.64.1-.83.15v11.26h-4.17v-13.94c.75-.26,1.63-.51,2.65-.74,1.02-.23,2.15-.35,3.4-.35.22,0,.49.01.81.04.32.03.63.07.95.11.32.05.63.1.95.17s.59.14.81.24l-.7,3.44Z"/>
        <path class="cls-6" d="m1074.96,366.14c-.84,2.84-1.72,5.5-2.64,7.98s-1.92,4.89-3,7.22c-.39.84-.79,1.55-1.18,2.14-.39.59-.82,1.07-1.29,1.46-.47.38-1,.66-1.58.84-.59.18-1.28.27-2.06.27-.65,0-1.26-.06-1.81-.18-.55-.12-1-.26-1.36-.41l.73-3.33c.43.15.81.25,1.15.31.34.06.69.08,1.06.08.75,0,1.32-.2,1.72-.6s.74-.96,1.02-1.67c-.95-1.87-1.91-3.96-2.86-6.29-.95-2.32-1.85-4.93-2.69-7.83h4.42c.19.73.41,1.52.66,2.37.25.85.52,1.71.8,2.58.28.87.57,1.71.86,2.53.29.82.57,1.57.83,2.24.24-.67.5-1.42.76-2.24s.52-1.67.77-2.53.5-1.73.73-2.58c.23-.85.45-1.64.63-2.37h4.31Z"/>
      </g>
      <g id="Artwork_35" data-name="Artwork 35">
        <g>
          <path id="cloud" class="cls-5" d="m712.16,526.48c-2.53-4.4-7.97-6.52-12.99-4.78l-1.82.63c-3.69-6.26-11.29-9.15-18.25-6.74-6.97,2.41-11.17,9.42-10.17,16.64-4.96,2.34-7.5,8.07-5.68,13.32,1.95,5.63,8.16,8.61,13.83,6.64l15.25-5.28c.79-.31,1.19-1.2.87-2-.29-.75-1.11-1.16-1.88-.91l-15.25,5.28c-4.07,1.41-8.51-.72-9.9-4.73s.79-8.43,4.86-9.84c1.5-.53,3.14-.57,4.66-.12.73.22,1.5-.12,1.83-.79h0c.38-.76.06-1.67-.7-2.05h-.01c-.08-.04-.15-.07-.23-.1-1.52-.44-3.11-.55-4.67-.31-.55-5.61,2.76-10.94,8.18-12.81,5.73-1.98,12.01.53,14.84,5.86-.37.4-.73.82-1.05,1.26-.49.69-.33,1.66.35,2.16.07.05.14.1.23.13h0c.68.33,1.5.11,1.93-.51.92-1.3,2.24-2.28,3.74-2.79,3.6-1.24,7.47.27,9.29,3.4.37.64,1.14.94,1.85.69h0c.8-.27,1.23-1.14.96-1.95h0c-.01-.1-.05-.21-.1-.29Z"/>
          <g id="numbers">
            <path class="cls-5" d="m697.38,542.52l-1.26.43-1.19-3.43-.18-.56-.19-.62c-.09.19-.19.37-.3.56l-.49.79-.87-.54,1.38-2.18,1.03-.36,2.07,5.92Z"/>
            <path class="cls-5" d="m702.12,537.56c.36,1.04.45,1.87.28,2.48s-.61,1.04-1.31,1.29-1.29.16-1.82-.23-.96-1.09-1.31-2.09-.46-1.88-.3-2.5.6-1.04,1.3-1.28,1.29-.16,1.82.24c.55.39.99,1.1,1.33,2.1Zm-2.9,1c.25.72.5,1.22.73,1.5s.51.36.8.25.45-.34.47-.7-.1-.9-.35-1.64-.5-1.23-.74-1.5-.51-.36-.79-.26-.45.34-.47.7.1.9.35,1.64Z"/>
            <path class="cls-5" d="m700.5,551.53l-1.26.43-1.19-3.43-.18-.56-.19-.62c-.09.19-.19.37-.3.56l-.49.79-.87-.54,1.38-2.18,1.03-.36,2.07,5.92Z"/>
            <path class="cls-5" d="m705.24,549.88l-1.26.43-1.19-3.43-.18-.56-.19-.62c-.09.19-.19.37-.3.56l-.49.79-.87-.54,1.38-2.18,1.03-.36,2.05,5.93h.02Z"/>
            <path class="cls-5" d="m710,548.24l-1.26.43-1.19-3.43-.18-.56-.19-.62c-.09.19-.19.37-.3.56l-.49.79-.87-.54,1.38-2.18,1.03-.36,2.07,5.92Z"/>
            <path class="cls-5" d="m714.73,543.28c.36,1.04.45,1.87.28,2.48s-.61,1.05-1.31,1.29-1.29.16-1.82-.23-.96-1.09-1.31-2.1-.46-1.88-.3-2.5.6-1.04,1.3-1.28,1.29-.16,1.82.24c.55.39.99,1.08,1.33,2.1Zm-2.9,1c.25.72.5,1.22.73,1.5s.5.36.8.25.45-.34.47-.7-.1-.9-.35-1.63-.5-1.23-.74-1.5-.51-.36-.79-.26-.45.34-.47.7.1.89.35,1.63Z"/>
            <path class="cls-5" d="m719.9,549.46c.26.75.33,1.36.21,1.8s-.44.76-.95.94-.94.11-1.32-.17-.7-.79-.95-1.52-.33-1.36-.21-1.81c.12-.45.44-.76.95-.94s.94-.11,1.33.18.7.8.94,1.53Zm-2.11.73c.18.53.36.9.53,1.1.13.19.37.26.58.18s.32-.24.33-.51-.07-.66-.25-1.18-.36-.9-.54-1.09-.37-.27-.58-.19-.33.24-.33.51.07.66.25,1.19h0Z"/>
            <path class="cls-5" d="m723.37,550.68l-.91.32-.87-2.5-.13-.41-.14-.45c-.1.2-.17.34-.21.4l-.36.57-.63-.4,1.01-1.58.75-.26,1.49,4.32h0Z"/>
            <path class="cls-5" d="m701.69,555.82c.26.74.32,1.33.2,1.76s-.43.75-.94.92-.92.12-1.29-.17-.68-.78-.93-1.49-.32-1.34-.21-1.77.42-.74.93-.92.92-.12,1.29.17.7.78.94,1.49Zm-2.06.71c.18.51.36.88.52,1.07.13.18.37.26.57.17.21-.07.32-.24.33-.5s-.06-.65-.24-1.16-.36-.88-.53-1.06-.36-.26-.57-.19-.32.24-.33.5.06.65.25,1.17h0Z"/>
            <path class="cls-5" d="m705.08,557.01l-.89.31-.85-2.44-.13-.4-.13-.44c-.1.2-.16.33-.2.4l-.35.56-.62-.39.98-1.56.73-.25,1.45,4.23Z"/>
            <path class="cls-5" d="m708.45,553.48c.26.74.32,1.33.2,1.76s-.43.75-.94.92-.92.12-1.29-.17-.68-.78-.93-1.49-.32-1.34-.21-1.77.42-.74.93-.92.92-.12,1.29.17.7.78.94,1.49Zm-2.06.71c.18.51.36.88.52,1.07.13.18.37.26.57.17.22-.08.32-.24.33-.5s-.06-.65-.24-1.16-.36-.88-.53-1.06-.37-.26-.57-.19-.32.24-.33.5.06.65.25,1.17h0Z"/>
            <path class="cls-5" d="m711.83,554.67l-.89.31-.85-2.44-.13-.4-.13-.44c-.1.2-.17.34-.21.4l-.35.56-.62-.39.98-1.56.73-.25,1.46,4.22Z"/>
            <path class="cls-5" d="m702.66,561.51c.18.53.23.95.15,1.27s-.31.53-.68.66c-.31.13-.66.08-.93-.13-.27-.2-.49-.56-.67-1.08-.19-.54-.24-.96-.15-1.28s.31-.53.67-.66c.31-.13.66-.08.94.12.27.22.5.57.67,1.09Zm-1.49.52c.13.37.25.63.37.77.11.16.32.2.49.09h0c.1-.07.16-.19.15-.31.01-.18-.05-.46-.18-.83-.09-.28-.21-.55-.38-.77-.11-.15-.32-.2-.48-.1h-.02c-.1.07-.16.19-.15.31.03.3.09.58.2.85Z"/>
            <path class="cls-5" d="m705.1,562.37l-.65.22-.61-1.76-.09-.29-.1-.32c-.07.14-.12.24-.15.28l-.26.4-.45-.27.71-1.12.52-.18,1.06,3.03Z"/>
            <path class="cls-5" d="m712.42,562.38c.18.53.23.95.14,1.27s-.32.54-.68.66c-.31.13-.66.08-.93-.13-.27-.2-.49-.56-.67-1.08s-.24-.96-.15-1.28.31-.53.67-.66c.31-.13.66-.08.94.12.29.21.51.57.68,1.08Zm-1.48.51c.13.37.25.63.37.77.11.15.32.2.48.1h.02c.1-.07.16-.19.15-.31.01-.18-.05-.46-.18-.83-.09-.28-.21-.55-.38-.77-.09-.13-.26-.19-.41-.14s-.25.19-.24.36c0,.17.06.45.19.83Z"/>
            <path class="cls-5" d="m714.87,563.24l-.65.22-.61-1.76-.09-.29-.1-.32c-.07.14-.12.24-.15.28l-.25.41-.45-.28.71-1.12.53-.18,1.05,3.03Z"/>
            <path class="cls-5" d="m717.88,555.58c.26.74.32,1.33.2,1.76s-.43.75-.94.92-.92.12-1.29-.17-.68-.78-.93-1.49-.32-1.34-.21-1.77.42-.74.93-.92.92-.12,1.29.17.7.78.94,1.49Zm-2.06.71c.18.52.36.88.52,1.07.13.18.37.26.57.17.21-.07.32-.24.33-.5s-.06-.65-.24-1.16-.36-.88-.53-1.07-.37-.26-.58-.18-.32.24-.33.5.08.66.26,1.18h0Z"/>
            <path class="cls-5" d="m721.27,556.77l-.89.31-.85-2.44-.13-.4-.13-.44c-.1.2-.16.33-.2.4l-.35.56-.62-.39.98-1.56.73-.25,1.46,4.22h0Z"/>
            <path class="cls-5" d="m724.64,553.24c.26.74.32,1.33.2,1.76s-.43.75-.94.92-.92.12-1.29-.17-.68-.78-.93-1.49-.32-1.34-.21-1.77.42-.74.93-.92.92-.12,1.29.17.7.78.94,1.49Zm-2.06.71c.18.52.36.88.52,1.07.13.18.37.26.57.17.21-.07.32-.24.33-.5s-.06-.65-.24-1.16-.36-.88-.53-1.07-.37-.26-.57-.19-.32.24-.33.5.07.67.25,1.18h0Z"/>
            <path class="cls-5" d="m711.92,537.48l-1.26.43-1.19-3.43-.18-.56-.19-.62c-.09.19-.19.37-.3.56l-.49.79-.87-.54,1.38-2.18,1.04-.36,2.05,5.93h0Z"/>
            <path class="cls-5" d="m716.66,532.52c.36,1.04.45,1.87.28,2.48s-.61,1.04-1.31,1.29-1.29.16-1.82-.23-.96-1.09-1.31-2.09-.46-1.88-.3-2.5.6-1.04,1.3-1.28,1.29-.16,1.82.24.98,1.1,1.33,2.1Zm-2.91,1.01c.25.72.5,1.22.73,1.5s.51.36.8.25.45-.34.47-.7-.1-.9-.35-1.64-.5-1.23-.74-1.5-.51-.36-.79-.26-.45.34-.47.7.1.9.35,1.64h0Z"/>
          </g>
        </g>
      </g>
    </g>
  </g>
</svg>